<svg width="16" height="16" viewBox="0 0 16 16" fill="none" xmlns="http://www.w3.org/2000/svg">
<path d="M13.3332 8.00033C13.3332 8.40033 13.0665 8.66699 12.6665 8.66699H8.6665V12.667C8.6665 13.067 8.39984 13.3337 7.99984 13.3337C7.59984 13.3337 7.33317 13.067 7.33317 12.667V8.66699H3.33317C2.93317 8.66699 2.6665 8.40033 2.6665 8.00033C2.6665 7.60033 2.93317 7.33366 3.33317 7.33366H7.33317V3.33366C7.33317 2.93366 7.59984 2.66699 7.99984 2.66699C8.39984 2.66699 8.6665 2.93366 8.6665 3.33366V7.33366H12.6665C13.0665 7.33366 13.3332 7.60033 13.3332 8.00033Z" fill="#B4B7BD"/>
</svg>
