<svg width="18" height="18" viewBox="0 0 18 18" fill="none" xmlns="http://www.w3.org/2000/svg">
<path d="M8.99984 17.3332C7.90549 17.3332 6.82185 17.1176 5.81081 16.6988C4.79976 16.28 3.8811 15.6662 3.10728 14.8924C1.54448 13.3296 0.666504 11.21 0.666504 8.99984C0.666504 6.7897 1.54448 4.67008 3.10728 3.10728C4.67008 1.54448 6.7897 0.666504 8.99984 0.666504C10.0942 0.666504 11.1778 0.882052 12.1889 1.30084C13.1999 1.71963 14.1186 2.33346 14.8924 3.10728C15.6662 3.8811 16.28 4.79976 16.6988 5.81081C17.1176 6.82185 17.3332 7.90549 17.3332 8.99984C17.3332 11.21 16.4552 13.3296 14.8924 14.8924C13.3296 16.4552 11.21 17.3332 8.99984 17.3332ZM8.99984 4.83317L4.83317 8.99984H7.33317V12.3332H10.6665V8.99984H13.1665L8.99984 4.83317Z" fill="#00D0BF"/>
</svg>
