<svg viewBox="0 -0.019 16 16.038" width="16" height="16.038" xmlns="http://www.w3.org/2000/svg">
  <mask id="mask0_1753_16151" style="mask-type:alpha" maskUnits="userSpaceOnUse" x="2" y="3" width="12" height="10">
    <path d="M 13.133 8.467 L 9.133 12.467 C 9 12.6 8.867 12.667 8.667 12.667 C 8.467 12.667 8.333 12.6 8.2 12.467 C 7.933 12.2 7.933 11.8 8.2 11.534 L 11.733 8 L 8.2 4.467 C 7.933 4.2 7.933 3.8 8.2 3.534 C 8.467 3.267 8.867 3.267 9.133 3.534 L 13.133 7.534 C 13.4 7.8 13.4 8.2 13.133 8.467 Z" fill="white"></path>
    <path d="M 7.733 8.433 L 3.733 12.433 C 3.6 12.566 3.467 12.633 3.267 12.633 C 3.067 12.633 2.933 12.566 2.8 12.433 C 2.533 12.166 2.533 11.766 2.8 11.5 L 6.333 7.966 L 2.8 4.433 C 2.533 4.166 2.533 3.766 2.8 3.5 C 3.067 3.233 3.467 3.233 3.733 3.5 L 7.733 7.5 C 8 7.766 8 8.166 7.733 8.433 Z" fill="white"></path>
  </mask>
  <path d="M 13.133 8.467 L 9.133 12.467 C 9 12.6 8.867 12.667 8.667 12.667 C 8.467 12.667 8.333 12.6 8.2 12.467 C 7.933 12.2 7.933 11.8 8.2 11.534 L 11.733 8 L 8.2 4.467 C 7.933 4.2 7.933 3.8 8.2 3.534 C 8.467 3.267 8.867 3.267 9.133 3.534 L 13.133 7.534 C 13.4 7.8 13.4 8.2 13.133 8.467 Z" fill="white"></path>
  <path d="M 7.733 8.433 L 3.733 12.433 C 3.6 12.566 3.467 12.633 3.267 12.633 C 3.067 12.633 2.933 12.566 2.8 12.433 C 2.533 12.166 2.533 11.766 2.8 11.5 L 6.333 7.966 L 2.8 4.433 C 2.533 4.166 2.533 3.766 2.8 3.5 C 3.067 3.233 3.467 3.233 3.733 3.5 L 7.733 7.5 C 8 7.766 8 8.166 7.733 8.433 Z" fill="white"></path>
  <g mask="url(#mask0_1753_16151)" transform="matrix(1.000003, 0, 0, 1.000003, 0, 0)">
    <rect fill="#00D0BF" style="" transform="matrix(0.999997, -0.002343, 0, 1.000003, 0, 0.01874)" width="16" height="16"></rect>
  </g>
</svg>