<svg width="24" height="23" viewBox="0 0 24 23" fill="none" xmlns="http://www.w3.org/2000/svg">
<path fill-rule="evenodd" clip-rule="evenodd" d="M23.4425 16.8575L21.8675 15.2825C21.7625 15.1775 21.6575 15.125 21.5 15.125H19.925V13.025C19.925 12.71 19.715 12.5 19.4 12.5H11.525C11.21 12.5 11 12.71 11 13.025V19.85C11 20.165 11.21 20.375 11.525 20.375H12.26C12.1025 20.6375 12.05 20.9 12.05 21.1625C12.05 22.16 12.89 23 13.8875 23C14.885 23 15.725 22.16 15.725 21.1625C15.725 20.9 15.6725 20.6375 15.515 20.375H19.0325L19.0325 20.375C18.9275 20.6375 18.8225 20.9 18.8225 21.1625C18.8225 22.16 19.6625 23 20.66 23C21.6575 23 22.4975 22.16 22.4975 21.1625C22.4975 20.9 22.445 20.6375 22.2875 20.375H23.075C23.39 20.375 23.6 20.165 23.6 19.85V17.225C23.6 17.0675 23.5475 16.9625 23.4425 16.8575ZM12.05 13.55H18.875V15.65V19.325H12.05V13.55ZM13.8875 21.95C14.3075 21.95 14.675 21.5825 14.675 21.1625C14.675 20.7425 14.3075 20.375 13.8875 20.375C13.4675 20.375 13.1 20.7425 13.1 21.1625C13.1 21.5825 13.4675 21.95 13.8875 21.95ZM21.5 21.1625C21.5 21.5825 21.1325 21.95 20.7125 21.95C20.2925 21.95 19.925 21.5825 19.925 21.1625C19.925 20.7425 20.2925 20.375 20.7125 20.375C21.1325 20.375 21.5 20.7425 21.5 21.1625ZM19.925 19.325H22.55V17.435L21.29 16.175H19.925V19.325Z" fill="#00D0BF"/>
<path d="M10.8361 7.3125C9.86289 7.3125 9.03234 7.6562 8.3444 8.34359C7.65647 9.031 7.3125 9.86092 7.3125 10.8333C7.3125 11.6097 7.52917 12.2958 7.9625 12.8917C8.39583 13.4875 8.95556 13.9118 9.64167 14.1646V12.3229C9.44306 12.1604 9.27604 11.9392 9.14062 11.6594C9.00521 11.3795 8.9375 11.1042 8.9375 10.8333C8.9375 10.3067 9.1215 9.85908 9.48951 9.49046C9.85754 9.12182 10.3044 8.9375 10.8301 8.9375C11.3559 8.9375 11.7993 9.11918 12.1604 9.48255C12.5215 9.84592 12.7021 10.2872 12.7021 10.8062H14.3271C14.3271 9.83125 13.9885 9.00521 13.3115 8.32812C12.6344 7.65104 11.8092 7.3125 10.8361 7.3125ZM8.34167 21.6667L7.8 18.2542C7.45694 18.1278 7.09583 17.9562 6.71667 17.7396C6.3375 17.5229 6.00347 17.2972 5.71458 17.0625L2.51875 18.525L0 14.0833L2.925 11.9437C2.88889 11.7812 2.86632 11.5962 2.85729 11.3885C2.84826 11.1809 2.84375 10.9958 2.84375 10.8333C2.84375 10.6708 2.84826 10.4858 2.85729 10.2781C2.86632 10.0705 2.88889 9.88542 2.925 9.72292L0 7.58333L2.51875 3.14167L5.71458 4.60417C6.00347 4.36944 6.3375 4.14375 6.71667 3.92708C7.09583 3.71042 7.45694 3.54792 7.8 3.43958L8.34167 0H13.325L13.8667 3.4125C14.2097 3.53889 14.5753 3.7059 14.9635 3.91354C15.3517 4.12118 15.6813 4.35139 15.9521 4.60417L19.1479 3.14167L21.6667 7.58333L18.7417 9.66875C18.7597 9.84931 18.7733 10.0434 18.7823 10.251C18.7913 10.4587 18.7958 10.6437 18.7958 10.8062H17.1708C17.1708 10.4451 17.1528 10.1247 17.1167 9.84479C17.0806 9.56493 17.0264 9.28958 16.9542 9.01875L19.5 7.15L18.4167 5.2L15.5458 6.44583C15.1306 5.97639 14.6611 5.58368 14.1375 5.26771C13.6139 4.95174 13.0361 4.74861 12.4042 4.65833L12.0138 1.625H9.64167L9.2625 4.65833C8.64861 4.78472 8.07535 5.00139 7.54271 5.30833C7.01007 5.61528 6.53611 5.99444 6.12083 6.44583L3.25 5.2L2.16667 7.15L4.7125 9.01875C4.64028 9.32569 4.5816 9.62812 4.53646 9.92604C4.49132 10.224 4.46875 10.5264 4.46875 10.8333C4.46875 11.1473 4.49132 11.4515 4.53646 11.7459C4.5816 12.0403 4.64028 12.341 4.7125 12.6479L2.16667 14.5167L3.25 16.4667L6.12083 15.2208C6.59028 15.6903 7.12743 16.083 7.73229 16.399C8.33715 16.7149 8.97361 16.9451 9.64167 17.0896V21.6667H8.34167Z" fill="#00D0BF"/>
</svg>
