<svg width="26" height="26" viewBox="0 0 26 26" fill="none" xmlns="http://www.w3.org/2000/svg">
<path d="M13.0027 9.47919C12.0295 9.47919 11.199 9.82288 10.5111 10.5103C9.82312 11.1977 9.47916 12.0276 9.47916 13C9.47916 13.7764 9.69582 14.4625 10.1292 15.0584C10.5625 15.6542 11.1222 16.0785 11.8083 16.3313V14.4896C11.6097 14.3271 11.4427 14.1059 11.3073 13.8261C11.1719 13.5462 11.1042 13.2709 11.1042 13C11.1042 12.4734 11.2882 12.0258 11.6562 11.6571C12.0242 11.2885 12.4711 11.1042 12.9968 11.1042C13.5225 11.1042 13.966 11.2859 14.3271 11.6492C14.6882 12.0126 14.8687 12.4538 14.8687 12.9729H16.4937C16.4937 11.9979 16.1552 11.1719 15.4781 10.4948C14.801 9.81773 13.9759 9.47919 13.0027 9.47919ZM10.5083 23.8334L9.96666 20.4209C9.6236 20.2945 9.26249 20.1229 8.88332 19.9063C8.50416 19.6896 8.17013 19.4639 7.88124 19.2292L4.68541 20.6917L2.16666 16.25L5.09166 14.1104C5.05555 13.9479 5.03298 13.7629 5.02395 13.5552C5.01492 13.3476 5.01041 13.1625 5.01041 13C5.01041 12.8375 5.01492 12.6525 5.02395 12.4448C5.03298 12.2372 5.05555 12.0521 5.09166 11.8896L2.16666 9.75002L4.68541 5.30835L7.88124 6.77085C8.17013 6.53613 8.50416 6.31044 8.88332 6.09377C9.26249 5.8771 9.6236 5.7146 9.96666 5.60627L10.5083 2.16669H15.4917L16.0333 5.57919C16.3764 5.70558 16.742 5.87259 17.1302 6.08023C17.5184 6.28787 17.8479 6.51808 18.1187 6.77085L21.3146 5.30835L23.8333 9.75002L20.9083 11.8354C20.9264 12.016 20.9399 12.2101 20.9489 12.4177C20.958 12.6254 20.9625 12.8104 20.9625 12.9729H19.3375C19.3375 12.6118 19.3194 12.2913 19.2833 12.0115C19.2472 11.7316 19.193 11.4563 19.1208 11.1854L21.6667 9.31669L20.5833 7.36669L17.7125 8.61252C17.2972 8.14308 16.8278 7.75037 16.3042 7.43439C15.7805 7.11842 15.2028 6.9153 14.5708 6.82502L14.1805 3.79169H11.8083L11.4292 6.82502C10.8153 6.95141 10.242 7.16808 9.70936 7.47502C9.17673 7.78196 8.70277 8.16113 8.28749 8.61252L5.41666 7.36669L4.33332 9.31669L6.87916 11.1854C6.80693 11.4924 6.74825 11.7948 6.70311 12.0927C6.65798 12.3906 6.63541 12.6931 6.63541 13C6.63541 13.314 6.65798 13.6182 6.70311 13.9126C6.74825 14.207 6.80693 14.5077 6.87916 14.8146L4.33332 16.6834L5.41666 18.6334L8.28749 17.3875C8.75693 17.857 9.29409 18.2497 9.89895 18.5656C10.5038 18.8816 11.1403 19.1118 11.8083 19.2563V23.8334H10.5083Z" fill="#00D0BF"/>
<path d="M18.0417 24.8536V20.2531L13.9167 17.9305V22.531L18.0417 24.8536ZM18.9583 24.8536L23.0833 22.531V17.9156L18.9583 20.2531V24.8536ZM18.0417 25.8809L13.4583 23.3052C13.3157 23.2258 13.2037 23.1166 13.1222 22.9777C13.0407 22.8387 13 22.6898 13 22.531V17.469C13 17.3102 13.0407 17.1613 13.1222 17.0223C13.2037 16.8834 13.3157 16.7742 13.4583 16.6948L18.0417 14.1191C18.1843 14.0397 18.337 14 18.5 14C18.663 14 18.8157 14.0397 18.9583 14.1191L23.5417 16.6948C23.6843 16.7742 23.7963 16.8834 23.8778 17.0223C23.9593 17.1613 24 17.3102 24 17.469V22.531C24 22.6898 23.9593 22.8387 23.8778 22.9777C23.7963 23.1166 23.6843 23.2258 23.5417 23.3052L18.9583 25.8809C18.8157 25.9603 18.663 26 18.5 26C18.337 26 18.1843 25.9603 18.0417 25.8809ZM21.0056 18.0645L22.5639 17.1861L18.5 14.8933L16.9417 15.7717L21.0056 18.0645ZM18.5 19.4938L20.0889 18.5856L16.0097 16.2928L14.4208 17.1861L18.5 19.4938Z" fill="#00D0BF"/>
</svg>
