<svg width="17" height="18" viewBox="0 0 17 18" fill="none" xmlns="http://www.w3.org/2000/svg">
<path fill-rule="evenodd" clip-rule="evenodd" d="M16.0364 5.90465L8.67273 0.183882C8.34546 -0.061294 7.93636 -0.061294 7.69091 0.183882L0.327273 5.90465C0.0818182 6.0681 0 6.31328 0 6.55846V15.5482C0 16.9376 1.06364 18 2.45455 18H13.9091C15.3 18 16.3636 16.9376 16.3636 15.5482V6.55846C16.3636 6.31328 16.2818 6.0681 16.0364 5.90465ZM9.81818 9.82747V16.3655H6.54545V9.82747H9.81818ZM13.9091 16.3655C14.4 16.3655 14.7273 16.0386 14.7273 15.5482V6.96708L8.18182 1.90011L1.63636 6.96708V15.5482C1.63636 16.0386 1.96364 16.3655 2.45455 16.3655H4.90909V9.01021C4.90909 8.51986 5.23636 8.19296 5.72727 8.19296H10.6364C11.1273 8.19296 11.4545 8.51986 11.4545 9.01021V16.3655H13.9091Z" fill="#B9B9C3"/>
</svg>
