<svg width="38" height="38" viewBox="0 0 38 38" fill="none" xmlns="http://www.w3.org/2000/svg">
<path width="38" height="38" d="M19 7C21.1217 7 23.1566 7.84285 24.6569 9.34315C26.1571 10.8434 27 12.8783 27 15C27 17.1217 26.1571 19.1566 24.6569 20.6569C23.1566 22.1571 21.1217 23 19 23C16.8783 23 14.8434 22.1571 13.3431 20.6569C11.8429 19.1566 11 17.1217 11 15C11 12.8783 11.8429 10.8434 13.3431 9.34315C14.8434 7.84285 16.8783 7 19 7ZM19 27C27.84 27 35 30.58 35 35V39H3V35C3 30.58 10.16 27 19 27Z" fill="#161D31"/>
</svg>
