<svg width="30" height="30" viewBox="0 0 30 30" fill="none" xmlns="http://www.w3.org/2000/svg">
<rect width="30" height="30" rx="15" fill="#00D0BF"/>
<rect width="30" height="30" rx="15" fill="white" fill-opacity="0.5"/>
<mask id="mask0_868_3175" style="mask-type:alpha" maskUnits="userSpaceOnUse" x="0" y="0" width="30" height="30">
<rect width="30" height="30" rx="15" fill="white"/>
</mask>
<g mask="url(#mask0_868_3175)">
<path d="M19.7369 20.0328V22.2038H4.53955V20.0328C4.53955 20.0328 4.53955 15.6907 12.1382 15.6907C19.7369 15.6907 19.7369 20.0328 19.7369 20.0328ZM15.9376 9.7203C15.9376 8.96886 15.7147 8.23429 15.2973 7.6095C14.8798 6.9847 14.2864 6.49773 13.5922 6.21016C12.8979 5.9226 12.134 5.84736 11.397 5.99396C10.66 6.14056 9.98304 6.50241 9.45169 7.03376C8.92035 7.5651 8.55849 8.24208 8.4119 8.97908C8.2653 9.71608 8.34054 10.48 8.6281 11.1742C8.91566 11.8685 9.40263 12.4619 10.0274 12.8793C10.6522 13.2968 11.3868 13.5196 12.1382 13.5196C13.1459 13.5196 14.1123 13.1194 14.8248 12.4068C15.5373 11.6943 15.9376 10.7279 15.9376 9.7203ZM19.6718 15.6907C20.3391 16.2071 20.8852 16.8635 21.2715 17.6137C21.6578 18.3639 21.8751 19.1896 21.908 20.0328V22.2038H26.2501V20.0328C26.2501 20.0328 26.2501 16.0923 19.6718 15.6907ZM18.6514 5.92096C17.9042 5.9168 17.1735 6.14018 16.5563 6.56142C17.2157 7.48274 17.5703 8.58732 17.5703 9.7203C17.5703 10.8533 17.2157 11.9579 16.5563 12.8792C17.1735 13.3004 17.9042 13.5238 18.6514 13.5196C19.659 13.5196 20.6254 13.1194 21.3379 12.4068C22.0504 11.6943 22.4507 10.7279 22.4507 9.7203C22.4507 8.71265 22.0504 7.74627 21.3379 7.03376C20.6254 6.32124 19.659 5.92096 18.6514 5.92096Z" fill="#161D31"/>
</g>
</svg>
