<svg width="104" height="104" viewBox="0 0 104 104" fill="none" xmlns="http://www.w3.org/2000/svg">
  <defs></defs>
  <mask id="mask0_444_1387" style="mask-type:alpha" maskUnits="userSpaceOnUse" x="0" y="0" width="104" height="104">
    <rect width="104" height="104" rx="6" fill="white"></rect>
  </mask>
  <g mask="url(#mask0_444_1387)">
    <rect x="-1" y="-2" width="108" height="108" fill="#00D0BF"></rect>
    <path d="M 59.641 34.106 L 38.933 34.106 C 36.647 34.106 34.792 35.959 34.792 38.247 L 34.792 67.239 C 34.792 69.525 36.647 71.38 38.933 71.38 L 67.925 71.38 C 70.213 71.38 72.066 69.525 72.066 67.239 L 72.066 46.531 L 59.641 34.106 M 67.925 67.239 L 38.933 67.239 L 38.933 38.247 L 57.57 38.247 L 57.57 48.602 L 67.925 48.602 M 63.783 56.884 L 43.075 56.884 L 43.075 52.743 L 63.783 52.743 M 57.57 63.097 L 43.075 63.097 L 43.075 58.955 L 57.57 58.955" style="fill: rgb(255, 255, 255);"></path>
  </g>
</svg>