<svg width="104" height="104" viewBox="0 0 104 104" fill="none" xmlns="http://www.w3.org/2000/svg">
  <defs></defs>
  <mask id="mask0_444_1387" style="mask-type:alpha" maskUnits="userSpaceOnUse" x="0" y="0" width="104" height="104">
    <rect width="104" height="104" rx="6" fill="white"></rect>
  </mask>
  <g mask="url(#mask0_444_1387)">
    <rect x="-1" y="-2" width="108" height="108" fill="#00D0BF"></rect>
    <path d="M 67.247 38.925 L 63.189 38.925 C 63.189 33.245 58.728 28.784 53.048 28.784 C 47.368 28.784 42.907 33.245 42.907 38.925 L 38.849 38.925 C 36.618 38.925 34.792 40.751 34.792 42.983 L 34.792 67.325 C 34.792 69.554 36.618 71.38 38.849 71.38 L 67.247 71.38 C 69.479 71.38 71.304 69.554 71.304 67.325 L 71.304 42.983 C 71.304 40.751 69.479 38.925 67.247 38.925 Z M 53.048 32.841 C 56.496 32.841 59.134 35.477 59.134 38.925 L 46.962 38.925 C 46.962 35.477 49.6 32.841 53.048 32.841 Z M 67.247 67.325 L 38.849 67.325 L 38.849 42.983 L 67.247 42.983 L 67.247 67.325 Z M 53.048 51.097 C 49.6 51.097 46.962 48.459 46.962 45.011 L 42.907 45.011 C 42.907 50.691 47.368 55.153 53.048 55.153 C 58.728 55.153 63.189 50.691 63.189 45.011 L 59.134 45.011 C 59.134 48.459 56.496 51.097 53.048 51.097 Z" fill="#ffffff" style=""></path>
  </g>
</svg>