<svg width="17" height="21" viewBox="0 0 17 21" fill="none" xmlns="http://www.w3.org/2000/svg">
<path d="M0.909091 0.5H15.4545C15.6957 0.5 15.9269 0.595779 16.0974 0.766267C16.2679 0.936754 16.3636 1.16799 16.3636 1.40909V5.04545C16.3636 5.28656 16.2679 5.51779 16.0974 5.68828C15.9269 5.85877 15.6957 5.95455 15.4545 5.95455H0.909091C0.667985 5.95455 0.436754 5.85877 0.266266 5.68828C0.0957789 5.51779 0 5.28656 0 5.04545V1.40909C0 1.16799 0.0957789 0.936754 0.266266 0.766267C0.436754 0.595779 0.667985 0.5 0.909091 0.5ZM0.909091 7.77273H15.4545C15.6957 7.77273 15.9269 7.86851 16.0974 8.03899C16.2679 8.20948 16.3636 8.44071 16.3636 8.68182V12.3182C16.3636 12.5593 16.2679 12.7905 16.0974 12.961C15.9269 13.1315 15.6957 13.2273 15.4545 13.2273H0.909091C0.667985 13.2273 0.436754 13.1315 0.266266 12.961C0.0957789 12.7905 0 12.5593 0 12.3182V8.68182C0 8.44071 0.0957789 8.20948 0.266266 8.03899C0.436754 7.86851 0.667985 7.77273 0.909091 7.77273ZM0.909091 15.0455H15.4545C15.6957 15.0455 15.9269 15.1412 16.0974 15.3117C16.2679 15.4822 16.3636 15.7134 16.3636 15.9545V19.5909C16.3636 19.832 16.2679 20.0632 16.0974 20.2337C15.9269 20.4042 15.6957 20.5 15.4545 20.5H0.909091C0.667985 20.5 0.436754 20.4042 0.266266 20.2337C0.0957789 20.0632 0 19.832 0 19.5909V15.9545C0 15.7134 0.0957789 15.4822 0.266266 15.3117C0.436754 15.1412 0.667985 15.0455 0.909091 15.0455ZM5.45455 4.13636H6.36364V2.31818H5.45455V4.13636ZM5.45455 11.4091H6.36364V9.59091H5.45455V11.4091ZM5.45455 18.6818H6.36364V16.8636H5.45455V18.6818ZM1.81818 2.31818V4.13636H3.63636V2.31818H1.81818ZM1.81818 9.59091V11.4091H3.63636V9.59091H1.81818ZM1.81818 16.8636V18.6818H3.63636V16.8636H1.81818Z" fill="#B4B7BD"/>
</svg>
