<svg width="18" height="18" viewBox="0 0 18 18" fill="none" xmlns="http://www.w3.org/2000/svg">
<path fill-rule="evenodd" clip-rule="evenodd" d="M17.775 7.725L15.525 5.475C15.375 5.325 15.225 5.25 15 5.25H12.75V2.25C12.75 1.8 12.45 1.5 12 1.5H0.75C0.3 1.5 0 1.8 0 2.25V12C0 12.45 0.3 12.75 0.75 12.75H1.8C1.575 13.125 1.5 13.5 1.5 13.875C1.5 15.3 2.7 16.5 4.125 16.5C5.55 16.5 6.75 15.3 6.75 13.875C6.75 13.5 6.675 13.125 6.45 12.75H11.475C11.325 13.125 11.175 13.5 11.175 13.875C11.175 15.3 12.375 16.5 13.8 16.5C15.225 16.5 16.425 15.3 16.425 13.875C16.425 13.5 16.35 13.125 16.125 12.75H17.25C17.7 12.75 18 12.45 18 12V8.25C18 8.025 17.925 7.875 17.775 7.725ZM1.5 3H11.25V6V11.25H1.5V3ZM4.125 15C4.725 15 5.25 14.475 5.25 13.875C5.25 13.275 4.725 12.75 4.125 12.75C3.525 12.75 3 13.275 3 13.875C3 14.475 3.525 15 4.125 15ZM15 13.875C15 14.475 14.475 15 13.875 15C13.275 15 12.75 14.475 12.75 13.875C12.75 13.275 13.275 12.75 13.875 12.75C14.475 12.75 15 13.275 15 13.875ZM12.75 11.25H16.5V8.55L14.7 6.75H12.75V11.25Z" fill="#C4C4C4"/>
</svg>
