<svg width="20" height="14" viewBox="0 0 20 14" fill="none" xmlns="http://www.w3.org/2000/svg">
<path d="M15.0002 12.4168C14.6686 12.4168 14.3507 12.2851 14.1163 12.0507C13.8819 11.8163 13.7502 11.4984 13.7502 11.1668C13.7502 10.8353 13.8819 10.5174 14.1163 10.2829C14.3507 10.0485 14.6686 9.91683 15.0002 9.91683C15.3317 9.91683 15.6496 10.0485 15.884 10.2829C16.1185 10.5174 16.2502 10.8353 16.2502 11.1668C16.2502 11.4984 16.1185 11.8163 15.884 12.0507C15.6496 12.2851 15.3317 12.4168 15.0002 12.4168ZM16.2502 4.91683L17.8835 7.00016H14.1668V4.91683M5.00016 12.4168C4.66864 12.4168 4.3507 12.2851 4.11628 12.0507C3.88186 11.8163 3.75016 11.4984 3.75016 11.1668C3.75016 10.8353 3.88186 10.5174 4.11628 10.2829C4.3507 10.0485 4.66864 9.91683 5.00016 9.91683C5.33168 9.91683 5.64963 10.0485 5.88405 10.2829C6.11847 10.5174 6.25016 10.8353 6.25016 11.1668C6.25016 11.4984 6.11847 11.8163 5.88405 12.0507C5.64963 12.2851 5.33168 12.4168 5.00016 12.4168ZM16.6668 3.66683H14.1668V0.333496H2.50016C1.57516 0.333496 0.833496 1.07516 0.833496 2.00016V11.1668H2.50016C2.50016 11.8299 2.76356 12.4658 3.2324 12.9346C3.70124 13.4034 4.33712 13.6668 5.00016 13.6668C5.6632 13.6668 6.29909 13.4034 6.76793 12.9346C7.23677 12.4658 7.50016 11.8299 7.50016 11.1668H12.5002C12.5002 11.8299 12.7636 12.4658 13.2324 12.9346C13.7012 13.4034 14.3371 13.6668 15.0002 13.6668C15.6632 13.6668 16.2991 13.4034 16.7679 12.9346C17.2368 12.4658 17.5002 11.8299 17.5002 11.1668H19.1668V7.00016L16.6668 3.66683Z" fill="#00D0BF"/>
</svg>
