<svg width="18" height="18" viewBox="0 0 18 18" fill="none" xmlns="http://www.w3.org/2000/svg">
<path fill-rule="evenodd" clip-rule="evenodd" d="M3.13524 1.5H0.75C0.335786 1.5 0 1.16421 0 0.75C0 0.335786 0.335786 0 0.75 0H3.75C4.10747 0 4.41526 0.252289 4.48541 0.602807L5.11532 3.75H17.25C17.7205 3.75 18.0749 4.17828 17.9867 4.6405L16.7856 10.9386C16.5733 12.0076 15.6253 12.7707 14.55 12.75L7.27437 12.7499C6.18468 12.7707 5.2367 12.0076 5.02459 10.9397L3.77159 4.6794C3.76651 4.6587 3.76229 4.63765 3.75896 4.61631L3.13524 1.5ZM5.25 15.7512C5.25 16.652 5.84951 17.2525 6.74878 17.2525C7.64804 17.2525 8.24755 16.652 8.24755 15.7512C8.24755 14.8505 7.64804 14.25 6.74878 14.25C5.84951 14.25 5.25 14.8505 5.25 15.7512ZM13.5 15.75C13.5 16.65 14.0995 17.25 14.9988 17.25C15.898 17.25 16.4976 16.65 16.4976 15.75C16.4976 14.85 15.898 14.25 14.9988 14.25C14.0995 14.25 13.5 14.85 13.5 15.75ZM6.49563 10.6464L5.41555 5.25H16.3435L15.3133 10.652C15.2436 11.0027 14.9276 11.2571 14.5644 11.2501L7.26 11.25C6.8824 11.2571 6.56641 11.0027 6.49563 10.6464Z" fill="black"/>
<mask id="mask0_1854_9853" style="mask-type:alpha" maskUnits="userSpaceOnUse" x="0" y="0" width="18" height="18">
<path fill-rule="evenodd" clip-rule="evenodd" d="M3.13524 1.5H0.75C0.335786 1.5 0 1.16421 0 0.75C0 0.335786 0.335786 0 0.75 0H3.75C4.10747 0 4.41526 0.252289 4.48541 0.602807L5.11532 3.75H17.25C17.7205 3.75 18.0749 4.17828 17.9867 4.6405L16.7856 10.9386C16.5733 12.0076 15.6253 12.7707 14.55 12.75L7.27437 12.7499C6.18468 12.7707 5.2367 12.0076 5.02459 10.9397L3.77159 4.6794C3.76651 4.6587 3.76229 4.63765 3.75896 4.61631L3.13524 1.5ZM5.25 15.7512C5.25 16.652 5.84951 17.2525 6.74878 17.2525C7.64804 17.2525 8.24755 16.652 8.24755 15.7512C8.24755 14.8505 7.64804 14.25 6.74878 14.25C5.84951 14.25 5.25 14.8505 5.25 15.7512ZM13.5 15.75C13.5 16.65 14.0995 17.25 14.9988 17.25C15.898 17.25 16.4976 16.65 16.4976 15.75C16.4976 14.85 15.898 14.25 14.9988 14.25C14.0995 14.25 13.5 14.85 13.5 15.75ZM6.49563 10.6464L5.41555 5.25H16.3435L15.3133 10.652C15.2436 11.0027 14.9276 11.2571 14.5644 11.2501L7.26 11.25C6.8824 11.2571 6.56641 11.0027 6.49563 10.6464Z" fill="white"/>
</mask>
<g mask="url(#mask0_1854_9853)">
<rect width="18" height="18" fill="#B4B7BD"/>
</g>
</svg>