<svg width="2458" height="415" fill="none" xmlns="http://www.w3.org/2000/svg"><path d="M519.45 300.47a83.45 83.45 0 0 1-64.67 30.97c-53.9 0-96.88-40.7-96.88-114.9 0-71.54 42.12-114.53 96.88-114.53a81.28 81.28 0 0 1 64.67 30.97V24.03h69.26V325.8h-50.67a18.59 18.59 0 0 1-18.59-18.58v-6.75Zm0-117.69a56.86 56.86 0 0 0-41.75-19.44c-27.63 0-48 20.37-48 52.95s20.37 53.4 48 53.4a57.36 57.36 0 0 0 41.75-19.64v-67.27ZM656.85 353c15.8 0 25.77-3.16 29.42-12.4l4.96-11.76-86.73-221.75h60.22a18.58 18.58 0 0 1 17.53 12.4l44.9 126.1 45.35-126.1a18.57 18.57 0 0 1 17.53-12.4h60.65l-98.62 249.74c-17.65 46.21-50.67 56.62-92.3 57.49a143.72 143.72 0 0 1-29.92-3.6l6.81-42.36a18.58 18.58 0 0 1 19.15-15.61l1.05.25ZM865.67 107.59h69.7v27.62a95.26 95.26 0 0 1 68.13-33.07v48a17.18 17.18 0 0 1-17.16 17.16c-18.15 0-42.12 7.68-51.16 20.37v138.44h-69.5V107.59ZM1120.02 101.83c64.67 0 111.51 47.5 111.51 121.7a14.95 14.95 0 0 1-14.93 14.99h-140.5c4.09 20.32 23.11 38.9 55.75 38.9a91.96 91.96 0 0 0 43.86-11.76 12.4 12.4 0 0 1 16.6 3.65l22.3 33.01c-21.68 19.45-57.92 28.93-91.37 28.93-67.46 0-119.49-43.91-119.49-114.9-.06-63.36 47.94-114.52 116.27-114.52Zm-44.85 91.42h90.13c-1.79-15.36-13.13-37.54-45.22-37.54a43.35 43.35 0 0 0-44.91 37.54ZM1360.87 101.95c50.05-1.6 81.15 20.01 94.72 40.2l-31.6 29.36a18.56 18.56 0 0 1-24.03 1.67 49.55 49.55 0 0 0-30.97-9.78c-28.93 0-51.11 19.88-51.11 52.96 0 33.07 22.18 53.39 51.11 53.39a49.17 49.17 0 0 0 33.63-12.7 12.4 12.4 0 0 1 16.79 0l35.99 33.88c-13.13 19.02-42.49 40.26-89.57 40.26-67.09 0-117.7-44.47-119.44-111.49-1.54-63.43 50.8-115.76 114.48-117.75ZM1586.11 278.1a12.4 12.4 0 0 0-14.19-9.1c-2.32.48-4.69.72-7.06.75-12.39 0-19.45-9.54-19.45-22.18v-79.65h25.77a18.59 18.59 0 0 0 18.58-18.58v-41.75h-44.35V47.57h-69.26v219.45c0 42.06 24.04 64.23 68.14 64.23 25.84 0 43.37-6.2 51.61-14.5l-9.79-38.64ZM1604.13 216.35c0-61.56 44.79-114.52 119-114.52 74.22 0 119.5 52.95 119.5 114.52 0 61.57-44.36 114.9-119.5 114.9s-119-53.4-119-114.9Zm167.26 0c0-28.98-17.16-52.96-47.95-52.96-30.78 0-47.08 23.98-47.08 52.96 0 28.99 16.79 53.4 47.08 53.4 30.3 0 47.64-24.04 47.64-53.4h.31ZM1872.05 107.59h69.69v27.62a95.4 95.4 0 0 1 68.14-33.07v48.62a16.6 16.6 0 0 1-10.53 15.37c-2.05.81-4.24 1.2-6.44 1.17-18.09 0-42.12 7.68-51.17 20.37v138.44h-69.69V107.59ZM2034.29 246.21a42.58 42.58 0 0 1 39.37 26.24 42.54 42.54 0 0 1-31.02 58.05 42.55 42.55 0 0 1-50.85-41.8 43.36 43.36 0 0 1 42.5-42.49ZM2116.43 39.89a39.85 39.85 0 0 1 47.5-39.15 39.83 39.83 0 0 1-7.48 78.91 39.63 39.63 0 0 1-37.02-24.46 39.77 39.77 0 0 1-3-15.3Zm4.96 67.39h69.69V325.8h-69.69V107.28ZM2218.77 216.35c0-61.56 44.78-114.52 119-114.52 75.14 0 119.49 52.95 119.49 114.52 0 61.57-44.35 114.9-119.49 114.9-74.22 0-119-53.4-119-114.9Zm167.25 0c0-28.98-17.22-52.96-48.01-52.96-30.78 0-47.01 23.98-47.01 52.96 0 28.99 16.72 53.4 47.01 53.4s47.64-24.04 47.64-53.4h.37Z" fill="#fff"/><path d="M180.38 322.99a55.8 55.8 0 0 0 28.91-48.85V162.31a23.02 23.02 0 0 0-22.7-23.02c-4.01-.06-7.96.93-11.47 2.86L28.87 222.67A55.8 55.8 0 0 0 0 271.55v130.56a11.94 11.94 0 0 0 17.74 10.44L180.38 323Z" fill="#00D0BF"/><path style="mix-blend-mode:multiply" opacity=".6" d="M175.12 142.16 28.87 222.88A55.86 55.86 0 0 0 0 271.9v65.63l209.3-115.24v-59.91a23.12 23.12 0 0 0-11.34-19.87 23 23 0 0 0-22.84-.34Z" fill="url(#a)"/><path d="M188.58 126.64 1.76 24.04.93 84.37a39.78 39.78 0 0 0 20.59 35.43l187.77 103.39v-61.52a39.78 39.78 0 0 0-20.7-35.03Z" fill="#fff"/><path d="M90.35 72.64 59.01 55.39v85.05l31.34 17.29v-85.1Z" fill="#1F2572"/><path d="M31.2 40.58 1.74 24.04.93 84.35a40.31 40.31 0 0 0 5.28 20.57 39.38 39.38 0 0 0 14.94 14.85l10.2 5.69-.16-84.88Z" fill="#2E3192"/><path d="m188.46 126.6-10.52-5.75v85.2l31.35 17.14v-61.68a39.78 39.78 0 0 0-20.83-34.92Z" fill="#000E33"/><path d="m150.28 105.76-31.34-17.18v85.12l31.34 17.22v-85.16Z" fill="#0F1A52"/><defs><linearGradient id="a" x1="205.62" y1="175.15" x2="6.58" y2="283.78" gradientUnits="userSpaceOnUse"><stop stop-color="#1B1464"/><stop offset="1" stop-color="#9788FB" stop-opacity="0"/></linearGradient></defs></svg>