<svg width="187" height="63" viewBox="0 0 187 63" fill="none" xmlns="http://www.w3.org/2000/svg">
<path d="M59.9225 36.1098C59.4907 36.6395 58.9453 37.0671 58.326 37.3613C57.7067 37.6556 57.029 37.8092 56.3423 37.8109C53.3589 37.8109 50.979 35.5757 50.979 31.5C50.979 27.5706 53.3109 25.2095 56.3423 25.2095C57.0305 25.2025 57.7111 25.3522 58.3317 25.6471C58.9524 25.942 59.4966 26.3743 59.9225 26.9106V20.9263H63.7564V37.5013H60.9512C60.6784 37.5013 60.4167 37.3937 60.2238 37.2023C60.0309 37.0109 59.9225 36.7513 59.9225 36.4807V36.1098ZM59.9225 29.6458C59.6336 29.3177 59.2788 29.0531 58.8807 28.8692C58.4827 28.6852 58.0502 28.5859 57.6112 28.5776C56.0817 28.5776 54.9535 29.6969 54.9535 31.4864C54.9535 33.2759 56.0817 34.419 57.6112 34.419C58.0507 34.4078 58.4831 34.3061 58.8809 34.1205C59.2788 33.9348 59.6335 33.6692 59.9225 33.3405V29.6458Z" fill="white"/>
<path d="M67.5286 38.9948C68.403 38.9948 68.9551 38.8213 69.1575 38.3144L69.4318 37.668L64.6309 25.4885H67.9641C68.1769 25.4884 68.3846 25.5538 68.5584 25.6757C68.7322 25.7975 68.8636 25.9699 68.9346 26.1689L71.4208 33.0956L73.931 26.1689C74.0019 25.9699 74.1333 25.7975 74.3072 25.6757C74.481 25.5538 74.6886 25.4884 74.9014 25.4885H78.2587L72.7993 39.2058C71.822 41.7437 69.9942 42.3153 67.6897 42.3629C67.1322 42.3549 66.577 42.2888 66.0334 42.1656L66.4106 39.8386C66.4507 39.5917 66.5808 39.368 66.7761 39.21C66.9714 39.0519 67.2185 38.9705 67.4703 38.9812L67.5286 38.9948Z" fill="white"/>
<path d="M79.0886 25.5157H82.9465V27.033C83.4167 26.4904 83.994 26.0493 84.6428 25.7368C85.2916 25.4243 85.9981 25.2472 86.7187 25.2163V27.8529C86.7187 28.1029 86.6186 28.3426 86.4405 28.5193C86.2623 28.696 86.0207 28.7953 85.7688 28.7953C84.764 28.7953 83.4369 29.2172 82.9362 29.9146V37.5183H79.0886V25.5157Z" fill="white"/>
<path d="M93.1691 25.1993C96.7493 25.1993 99.3418 27.8087 99.3418 31.8845C99.3422 31.9924 99.3212 32.0994 99.2798 32.1993C99.2385 32.2991 99.1777 32.3899 99.1009 32.4664C99.0241 32.5429 98.9329 32.6036 98.8324 32.645C98.7319 32.6864 98.6241 32.7078 98.5153 32.7078H90.7378C90.9641 33.8237 92.0169 34.8443 93.8241 34.8443C94.6751 34.8335 95.5099 34.6112 96.252 34.1979C96.4021 34.1088 96.5809 34.0799 96.7517 34.1172C96.9225 34.1545 97.0725 34.2552 97.171 34.3986L98.4056 36.2119C97.2053 37.2802 95.1992 37.8007 93.3474 37.8007C89.613 37.8007 86.7324 35.3886 86.7324 31.4898C86.729 28.0095 89.3867 25.1993 93.1691 25.1993ZM90.6863 30.2208H95.6759C95.5764 29.3771 94.9489 28.1592 93.1726 28.1592C92.5735 28.1326 91.986 28.3295 91.5259 28.711C91.0658 29.0926 90.7663 29.6312 90.6863 30.2208Z" fill="white"/>
<path d="M106.502 25.2062C109.273 25.1177 110.994 26.3051 111.745 27.4142L109.996 29.0267C109.822 29.1964 109.592 29.2987 109.348 29.3156C109.104 29.3324 108.862 29.2626 108.666 29.1186C108.171 28.7534 107.567 28.5641 106.951 28.5811C105.35 28.5811 104.122 29.6731 104.122 31.4899C104.122 33.3066 105.35 34.4225 106.951 34.4225C107.638 34.4315 108.304 34.1823 108.813 33.725C108.94 33.6093 109.106 33.5451 109.278 33.5451C109.45 33.5451 109.616 33.6093 109.743 33.725L111.735 35.586C111.008 36.6304 109.383 37.7973 106.776 37.7973C103.062 37.7973 100.261 35.3546 100.165 31.6736C100.079 28.1898 102.977 25.3151 106.502 25.2062Z" fill="white"/>
<path d="M118.971 34.8817C118.928 34.7154 118.823 34.5715 118.677 34.4787C118.531 34.386 118.356 34.3513 118.185 34.3816C118.057 34.4076 117.926 34.4212 117.794 34.4224C117.109 34.4224 116.718 33.8985 116.718 33.2045V28.8294H118.144C118.417 28.8294 118.679 28.7219 118.872 28.5305C119.065 28.339 119.173 28.0794 119.173 27.8088V25.5157H116.718V22.2191H112.884V34.2727C112.884 36.5828 114.214 37.8007 116.656 37.8007C118.086 37.8007 119.056 37.4605 119.513 37.0046L118.971 34.8817Z" fill="white"/>
<path d="M119.969 31.4898C119.969 28.1081 122.448 25.1993 126.556 25.1993C130.664 25.1993 133.171 28.1081 133.171 31.4898C133.171 34.8715 130.716 37.8007 126.556 37.8007C122.396 37.8007 119.969 34.8681 119.969 31.4898ZM129.227 31.4898C129.227 29.8976 128.278 28.581 126.573 28.581C124.869 28.581 123.967 29.8976 123.967 31.4898C123.967 33.082 124.896 34.4224 126.573 34.4224C128.25 34.4224 129.21 33.1024 129.21 31.4898H129.227Z" fill="white"/>
<path d="M134.8 25.5157H138.658V27.033C139.128 26.4907 139.706 26.0498 140.354 25.7373C141.003 25.4249 141.71 25.2476 142.43 25.2163V27.887C142.429 28.008 142.404 28.1277 142.356 28.239C142.308 28.3504 142.239 28.4513 142.151 28.5357C142.064 28.6202 141.961 28.6867 141.847 28.7312C141.734 28.7758 141.613 28.7976 141.491 28.7953C140.489 28.7953 139.159 29.2172 138.658 29.9146V37.5183H134.8V25.5157Z" fill="white"/>
<path d="M143.781 33.1296C144.247 33.129 144.703 33.2656 145.091 33.5221C145.479 33.7787 145.782 34.1437 145.961 34.5709C146.139 34.9981 146.186 35.4683 146.095 35.922C146.005 36.3757 145.78 36.7925 145.45 37.1196C145.121 37.4466 144.701 37.6693 144.243 37.7594C143.786 37.8494 143.312 37.8029 142.881 37.6255C142.451 37.4482 142.083 37.1481 141.824 36.7633C141.566 36.3784 141.428 35.926 141.429 35.4635C141.441 34.8483 141.693 34.2618 142.131 33.8267C142.57 33.3916 143.161 33.1418 143.781 33.1296Z" fill="white"/>
<path d="M148.328 21.7972C148.328 21.3649 148.456 20.942 148.698 20.5821C148.939 20.2221 149.283 19.9412 149.685 19.7748C150.087 19.6084 150.53 19.564 150.958 19.6472C151.385 19.7304 151.779 19.9375 152.088 20.2422C152.397 20.547 152.608 20.9358 152.695 21.3596C152.781 21.7834 152.739 22.2231 152.574 22.6231C152.409 23.0232 152.128 23.3658 151.766 23.6075C151.405 23.8493 150.979 23.9794 150.544 23.9814C150.253 23.9846 149.965 23.9303 149.695 23.8218C149.426 23.7134 149.181 23.5528 148.975 23.3496C148.769 23.1463 148.605 22.9044 148.494 22.6379C148.383 22.3714 148.327 22.0856 148.328 21.7972ZM148.603 25.4987H152.461V37.5013H148.603V25.4987Z" fill="white"/>
<path d="M153.993 31.4898C153.993 28.1081 156.473 25.1993 160.581 25.1993C164.741 25.1993 167.196 28.1081 167.196 31.4898C167.196 34.8715 164.741 37.8007 160.581 37.8007C156.473 37.8007 153.993 34.8681 153.993 31.4898ZM163.252 31.4898C163.252 29.8976 162.299 28.581 160.595 28.581C158.89 28.581 157.992 29.8976 157.992 31.4898C157.992 33.082 158.918 34.4224 160.595 34.4224C162.272 34.4224 163.232 33.1024 163.232 31.4898H163.252Z" fill="white"/>
<path d="M35.2868 40.1141C36.0395 39.7032 36.6672 39.0994 37.1045 38.3657C37.5419 37.6321 37.7727 36.7955 37.773 35.9431V26.3934C37.7729 26.0516 37.683 25.7158 37.5121 25.419C37.3413 25.1221 37.0954 24.8746 36.7987 24.7009C36.502 24.5271 36.1648 24.433 35.8203 24.428C35.4758 24.4229 35.1359 24.507 34.8342 24.672L22.2557 31.5476C21.5032 31.9593 20.8758 32.5638 20.4391 33.2981C20.0024 34.0323 19.7723 34.8694 19.773 35.722V46.8707C19.7733 47.048 19.8203 47.2221 19.9091 47.376C19.998 47.5298 20.1257 47.6581 20.2798 47.748C20.4338 47.838 20.6088 47.8866 20.7875 47.889C20.9662 47.8915 21.1425 47.8477 21.299 47.762L35.2868 40.1141Z" fill="#00D0BF"/>
<path style="mix-blend-mode:multiply" opacity="0.6" d="M34.8342 24.672L22.2557 31.5476C21.5032 31.9593 20.8758 32.5638 20.4391 33.2981C20.0024 34.0323 19.7723 34.8694 19.773 35.722V41.3116L37.773 31.4966V26.3934C37.7729 26.0516 37.683 25.7158 37.5121 25.419C37.3413 25.1221 37.0954 24.8746 36.7987 24.7009C36.502 24.5271 36.1648 24.433 35.8203 24.428C35.4758 24.4229 35.1359 24.507 34.8342 24.672Z" fill="url(#paint0_linear)"/>
<path d="M36.0072 23.3282L19.8898 14.5508L19.8178 19.7118C19.8086 20.3294 19.969 20.9379 20.282 21.4719C20.5949 22.0059 21.0485 22.4454 21.5941 22.743L37.7938 31.5885V26.3254C37.7958 25.7125 37.6308 25.1104 37.3163 24.5829C37.0019 24.0553 36.5495 23.6218 36.0072 23.3282Z" fill="white"/>
<path d="M27.578 18.7456L24.8723 17.2725V24.5359L27.578 26.0124V18.7456Z" fill="#1F2572"/>
<path d="M22.4754 15.9661L19.8898 14.5508L19.8178 19.7118C19.8086 20.3294 19.969 20.9379 20.282 21.4719C20.5949 22.0059 21.0485 22.4454 21.5941 22.743L22.4891 23.2295L22.4754 15.9661Z" fill="#2E3192"/>
<path d="M36.0069 23.3282L35.105 22.8383V30.1085L37.7935 31.5714V26.3084C37.7924 25.6984 37.6259 25.0998 37.3116 24.5755C36.9973 24.0512 36.5466 23.6204 36.0069 23.3282Z" fill="white"/>
<path d="M32.6771 21.5216L29.9817 20.0553V27.3222L32.6771 28.7919V21.5216Z" fill="#0F1A52"/>
<defs>
<linearGradient id="paint0_linear" x1="37.4575" y1="27.4821" x2="20.4153" y2="36.8737" gradientUnits="userSpaceOnUse">
<stop stop-color="#1B1464"/>
<stop offset="1" stop-color="#9788FB" stop-opacity="0"/>
</linearGradient>
</defs>
</svg>
