<svg width="20" height="20" viewBox="0 0 20 20" fill="none" xmlns="http://www.w3.org/2000/svg">
<path fill-rule="evenodd" clip-rule="evenodd" d="M14.0809 1.66675C15.4459 1.66675 16.7305 2.24431 17.694 3.2344C18.7378 4.2245 19.2998 5.62714 19.1392 7.02978C19.1392 8.43243 18.5772 9.83506 17.6137 10.8252L10.5482 18.0859C10.3876 18.2509 10.227 18.3334 9.98612 18.3334C9.74525 18.3334 9.58467 18.2509 9.42409 18.0859L2.35853 10.8252C1.39504 9.83506 0.833008 8.43243 0.833008 7.02978C0.833008 5.62714 1.39504 4.2245 2.43882 3.2344C4.44608 1.1717 7.73799 1.1717 9.74525 3.2344L10.0664 3.56444L10.3876 3.2344C11.3511 2.24431 12.716 1.66675 14.0809 1.66675ZM10.0664 16.3532L16.5699 9.67005C17.2926 8.92747 17.694 8.01988 17.694 7.02979C17.694 6.03969 17.2926 5.13209 16.6502 4.38952C15.9276 3.72945 15.0444 3.31691 14.0809 3.31691C13.0372 3.31691 12.154 3.72945 11.4314 4.38952L10.6284 5.29711C10.3073 5.62714 9.82554 5.62714 9.50438 5.29711L8.62119 4.38952C7.89857 3.64695 7.01538 3.31691 6.05189 3.31691C5.16869 3.31691 4.20521 3.64695 3.56289 4.38952C2.92056 5.13209 2.51911 6.03969 2.51911 7.02979C2.51911 8.01988 2.84027 8.92747 3.56289 9.67005L10.0664 16.3532Z" fill="#EA5455"/>
</svg>
