<svg width="20" height="18" viewBox="0 0 20 18" fill="none" xmlns="http://www.w3.org/2000/svg">
<path d="M7.91683 6.08317L9.16683 7.33317L6.66683 9.83317L9.16683 12.3332L7.91683 13.5832L4.16683 9.83317L7.91683 6.08317ZM12.0835 13.5832L10.8335 12.3332L13.3335 9.83317L10.8335 7.33317L12.0835 6.08317L15.8335 9.83317L12.0835 13.5832ZM17.5002 0.666504H2.50016C2.05814 0.666504 1.63421 0.842099 1.32165 1.15466C1.00909 1.46722 0.833496 1.89114 0.833496 2.33317V15.6665C0.833496 16.1085 1.00909 16.5325 1.32165 16.845C1.63421 17.1576 2.05814 17.3332 2.50016 17.3332H17.5002C17.9422 17.3332 18.3661 17.1576 18.6787 16.845C18.9912 16.5325 19.1668 16.1085 19.1668 15.6665V2.33317C19.1668 1.89114 18.9912 1.46722 18.6787 1.15466C18.3661 0.842099 17.9422 0.666504 17.5002 0.666504ZM17.5002 15.6665H2.50016V3.99984H17.5002V15.6665Z" fill="#00D0BF"/>
</svg>
