<svg width="18" height="18" viewBox="0 0 18 18" fill="none" xmlns="http://www.w3.org/2000/svg">
<path fill-rule="evenodd" clip-rule="evenodd" d="M8.1 2.76451L6.03 4.64846C5.67 4.97611 5.13 4.97611 4.77 4.64846C4.41 4.32082 4.41 3.82935 4.77 3.50171L8.37 0.225256C8.415 0.1843 8.46 0.163823 8.505 0.143345C8.55 0.122867 8.595 0.102389 8.64 0.0614334C8.91 -0.0204778 9.18 -0.0204778 9.36 0.0614334C9.45 0.0614334 9.54 0.143345 9.63 0.225256L13.23 3.50171C13.59 3.82935 13.59 4.32082 13.23 4.64846C13.05 4.81229 12.87 4.8942 12.6 4.8942C12.33 4.8942 12.15 4.81229 11.97 4.64846L9.9 2.76451V12.2662C9.9 12.7577 9.54 13.0853 9 13.0853C8.46 13.0853 8.1 12.7577 8.1 12.2662V2.76451ZM18 15.5427V13.0853C18 12.5939 17.64 12.2662 17.1 12.2662C16.56 12.2662 16.2 12.5939 16.2 13.0853V15.5427C16.2 16.0342 15.84 16.3618 15.3 16.3618H2.7C2.16 16.3618 1.8 16.0342 1.8 15.5427V13.0853C1.8 12.5939 1.44 12.2662 0.9 12.2662C0.36 12.2662 0 12.5939 0 13.0853V15.5427C0 16.9352 1.17 18 2.7 18H15.3C16.83 18 18 16.9352 18 15.5427Z" fill="#B9B9C3"/>
</svg>
