<svg width="18" height="18" viewBox="0 0 18 18" fill="none" xmlns="http://www.w3.org/2000/svg">
<path fill-rule="evenodd" clip-rule="evenodd" d="M15 2.25H3C1.725 2.25 0.75 3.225 0.75 4.5V13.5C0.75 14.775 1.725 15.75 3 15.75H15C16.275 15.75 17.25 14.775 17.25 13.5V4.5C17.25 3.225 16.275 2.25 15 2.25ZM3.00001 3.75H15C15.3 3.75 15.525 3.9 15.675 4.2L9 8.85L2.32501 4.2C2.47501 3.9 2.70001 3.75 3.00001 3.75ZM2.25 13.5C2.25 13.95 2.55 14.25 3 14.25H15C15.45 14.25 15.75 13.95 15.75 13.5V5.925L9.45 10.35C9.3 10.425 9.15 10.5 9 10.5C8.85 10.5 8.7 10.425 8.55 10.35L2.25 5.925V13.5Z" fill="#B4B7BD"/>
</svg>
