<svg width="19" height="18" viewBox="0 0 19 18" fill="none" xmlns="http://www.w3.org/2000/svg">
<path fill-rule="evenodd" clip-rule="evenodd" d="M9.19167 5.25C10.0152 5.25 10.689 4.575 10.689 3.75C10.689 2.925 10.0152 2.25 9.19167 2.25C8.36814 2.25 7.69434 2.925 7.69434 3.75C7.69434 4.575 8.36814 5.25 9.19167 5.25ZM10.689 9C10.689 9.825 10.0152 10.5 9.19167 10.5C8.36814 10.5 7.69434 9.825 7.69434 9C7.69434 8.175 8.36814 7.5 9.19167 7.5C10.0152 7.5 10.689 8.175 10.689 9ZM7.69434 14.25C7.69434 13.425 8.36814 12.75 9.19167 12.75C10.0152 12.75 10.689 13.425 10.689 14.25C10.689 15.075 10.0152 15.75 9.19167 15.75C8.36814 15.75 7.69434 15.075 7.69434 14.25Z" fill="#B4B7BD"/>
</svg>
