<svg width="104" height="104" viewBox="0 0 104 104" fill="none" xmlns="http://www.w3.org/2000/svg">
<mask id="mask0_444:1348" style="mask-type:alpha" maskUnits="userSpaceOnUse" x="0" y="0" width="104" height="104">
<rect width="104" height="104" rx="6" fill="white"/>
</mask>
<g mask="url(#mask0_444:1348)">
<rect x="-1" y="-2" width="108" height="108" fill="#00D0BF"/>
<path d="M38.5833 65.4168C38.5833 65.9252 38.7853 66.4127 39.1447 66.7721C39.5042 67.1316 39.9917 67.3335 40.5 67.3335H63.5C64.0083 67.3335 64.4958 67.1316 64.8553 66.7721C65.2147 66.4127 65.4167 65.9252 65.4167 65.4168C65.4167 65.0143 65.2825 64.631 65.0717 64.3243L53.9167 45.0043V36.6668H50.0833V45.0043L38.9283 64.3243C38.7175 64.631 38.5833 65.0143 38.5833 65.4168ZM40.5 71.1668C38.975 71.1668 37.5125 70.561 36.4341 69.4827C35.3558 68.4044 34.75 66.9418 34.75 65.4168C34.75 64.2668 35.095 63.1935 35.7083 62.2927L46.25 43.9693V40.5002C45.7417 40.5002 45.2542 40.2982 44.8947 39.9388C44.5353 39.5793 44.3333 39.0918 44.3333 38.5835V36.6668C44.3333 35.6502 44.7372 34.6751 45.4561 33.9563C46.175 33.2374 47.15 32.8335 48.1667 32.8335H55.8333C56.85 32.8335 57.825 33.2374 58.5439 33.9563C59.2628 34.6751 59.6667 35.6502 59.6667 36.6668V38.5835C59.6667 39.0918 59.4647 39.5793 59.1053 39.9388C58.7458 40.2982 58.2583 40.5002 57.75 40.5002V43.9693L68.2917 62.2927C68.905 63.1935 69.25 64.2668 69.25 65.4168C69.25 66.9418 68.6442 68.4044 67.5659 69.4827C66.4875 70.561 65.025 71.1668 63.5 71.1668H40.5Z" fill="white"/>
</g>
</svg>
