<svg width="17" height="18" viewBox="0 0 17 18" fill="none" xmlns="http://www.w3.org/2000/svg">
<path fill-rule="evenodd" clip-rule="evenodd" d="M3.6 4.5C3.6 1.98 5.58 0 8.1 0C10.62 0 12.6 1.98 12.6 4.5C12.6 7.02 10.62 9 8.1 9C5.58 9 3.6 7.02 3.6 4.5ZM16.2 15.3V17.1C16.2 17.64 15.84 18 15.3 18C14.76 18 14.4 17.64 14.4 17.1V15.3C14.4 13.77 13.23 12.6 11.7 12.6H4.5C2.97 12.6 1.8 13.77 1.8 15.3V17.1C1.8 17.64 1.44 18 0.9 18C0.36 18 0 17.64 0 17.1V15.3C0 12.78 1.98 10.8 4.5 10.8H11.7C14.22 10.8 16.2 12.78 16.2 15.3ZM8.1 7.19998C6.57 7.19998 5.4 6.02998 5.4 4.49998C5.4 2.96998 6.57 1.79998 8.1 1.79998C9.63 1.79998 10.8 2.96998 10.8 4.49998C10.8 6.02998 9.63 7.19998 8.1 7.19998Z" fill="#B4B7BD"/>
</svg>
