<svg width="18" height="18" viewBox="0 0 18 18" fill="none" xmlns="http://www.w3.org/2000/svg">
<path fill-rule="evenodd" clip-rule="evenodd" d="M9.525 0.975L13.8 5.175C16.425 7.875 16.425 12.15 13.8 14.775C12.525 16.05 10.8 16.725 9 16.725C7.2 16.725 5.475 16.05 4.2 14.775C2.925 13.5 2.25 11.775 2.25 9.975C2.25 8.175 2.925 6.45 4.275 5.175L8.475 0.975C8.625 0.825 8.775 0.75 9 0.75C9.225 0.75 9.375 0.825 9.525 0.975ZM9 15.225C10.425 15.225 11.7 14.7 12.75 13.725C14.775 11.625 14.775 8.325 12.675 6.3L8.925 2.55L5.25 6.3C4.275 7.275 3.75 8.55 3.75 9.975C3.75 11.4 4.275 12.675 5.325 13.725C6.3 14.7 7.575 15.225 9 15.225Z" fill="#B4B7BD"/>
</svg>
