<svg height="24" viewBox="0 0 24 24" width="24" xmlns="http://www.w3.org/2000/svg"><path fill="#B4B7BD" d="m8 0h12a2 2 0 0 1 2 2v16a2 2 0 0 1 -2 2h-12a2 2 0 0 1 -2-2v-16a2 2 0 0 1 2-2m6.75 11.5c2.75 0 3.49-2.03 3.68-3.1.91-.29 1.57-1.14 1.57-2.15 0-1.25-1-2.25-2.25-2.25s-2.25 1-2.25 2.25c0 .94.57 1.75 1.39 2.08-.22.67-.89 1.67-2.89 1.67-1.38 0-2.34.35-3 .84v-3.97c.87-.31 1.5-1.14 1.5-2.12 0-1.25-1-2.25-2.25-2.25s-2.25 1-2.25 2.25c0 .98.63 1.81 1.5 2.12v6.26c-.87.31-1.5 1.14-1.5 2.12 0 1.25 1 2.25 2.25 2.25s2.25-1 2.25-2.25c0-.93-.56-1.75-1.37-2.07.28-.68 1.1-1.68 3.62-1.68m-4.5 3a.75.75 0 0 1 .75.75.75.75 0 0 1 -.75.75.75.75 0 0 1 -.75-.75.75.75 0 0 1 .75-.75m0-10.5a.75.75 0 0 1 .75.75.75.75 0 0 1 -.75.75.75.75 0 0 1 -.75-.75.75.75 0 0 1 .75-.75m7.5 1.5a.75.75 0 0 1 .75.75.75.75 0 0 1 -.75.75.75.75 0 0 1 -.75-.75.75.75 0 0 1 .75-.75m-1.75 16.5v2h-12a2 2 0 0 1 -2-2v-16h2v16z"/></svg>
