<svg width="16" height="20" viewBox="0 0 16 20" fill="none" xmlns="http://www.w3.org/2000/svg">
<path d="M8.00455 3.96665C10.1045 3.96665 12.1045 4.76665 13.6045 6.26665C16.7045 9.36665 16.7045 14.4667 13.6045 17.5667C11.8045 19.4667 9.30454 20.1666 6.90454 19.8666L7.40454 17.8666C9.10454 18.0667 10.9045 17.4667 12.2045 16.1667C14.5045 13.8667 14.5045 10.0667 12.2045 7.66665C11.1045 6.56665 9.50455 5.96665 8.00455 5.96665V10.5667L3.00455 5.56665L8.00455 0.56665V3.96665ZM2.30455 17.5667C-0.295454 14.9667 -0.695455 10.9667 1.10455 7.86665L2.60455 9.36665C1.50455 11.5666 1.90455 14.3667 3.80455 16.1667C4.30455 16.6667 4.90455 17.0667 5.60455 17.3666L5.00455 19.3666C4.00455 18.9667 3.10455 18.3666 2.30455 17.5667Z" fill="#B9B9C3"/>
</svg>
