<svg width="36" height="36" viewBox="0 0 36 36" fill="none" xmlns="http://www.w3.org/2000/svg">
<g clip-path="url(#clip0_3435_3471)">
<circle cx="18" cy="18" r="18" fill="#00D0BF"/>
<path d="M7.59375 21.25C6.65625 21.25 5.86458 20.9249 5.21875 20.2747C4.57292 19.6246 4.25 18.8351 4.25 17.9062C4.25 16.9774 4.57508 16.1879 5.22525 15.5378C5.87544 14.8876 6.66494 14.5625 7.59375 14.5625V10.7188C7.59375 10.2188 7.78125 9.78125 8.15625 9.40625C8.53125 9.03125 8.96875 8.84375 9.46875 8.84375H14.6562C14.6562 7.90625 14.9813 7.11458 15.6315 6.46875C16.2817 5.82292 17.0712 5.5 18 5.5C18.9288 5.5 19.7183 5.82508 20.3685 6.47525C21.0187 7.12544 21.3437 7.91494 21.3437 8.84375H26.5312C27.0312 8.84375 27.4687 9.03125 27.8437 9.40625C28.2187 9.78125 28.4062 10.2188 28.4062 10.7188V14.5625C29.3437 14.5625 30.1354 14.8876 30.7812 15.5378C31.4271 16.1879 31.75 16.9774 31.75 17.9062C31.75 18.8351 31.4249 19.6246 30.7747 20.2747C30.1246 20.9249 29.3351 21.25 28.4062 21.25V27.375C28.4062 27.875 28.2187 28.3125 27.8437 28.6875C27.4687 29.0625 27.0312 29.25 26.5312 29.25H9.46875C8.96875 29.25 8.53125 29.0625 8.15625 28.6875C7.78125 28.3125 7.59375 27.875 7.59375 27.375V21.25ZM13.7261 18.125C14.0754 18.125 14.3698 18.0028 14.6094 17.7583C14.849 17.5138 14.9687 17.2169 14.9687 16.8677C14.9687 16.5184 14.8465 16.224 14.602 15.9844C14.3575 15.7448 14.0607 15.625 13.7114 15.625C13.3621 15.625 13.0677 15.7472 12.8281 15.9917C12.5885 16.2362 12.4687 16.5331 12.4687 16.8823C12.4687 17.2316 12.591 17.526 12.8355 17.7656C13.08 18.0052 13.3768 18.125 13.7261 18.125ZM22.2886 18.125C22.6379 18.125 22.9323 18.0028 23.1719 17.7583C23.4115 17.5138 23.5312 17.2169 23.5312 16.8677C23.5312 16.5184 23.409 16.224 23.1645 15.9844C22.92 15.7448 22.6232 15.625 22.2739 15.625C21.9246 15.625 21.6302 15.7472 21.3906 15.9917C21.151 16.2362 21.0312 16.5331 21.0312 16.8823C21.0312 17.2316 21.1535 17.526 21.398 17.7656C21.6425 18.0052 21.9393 18.125 22.2886 18.125ZM12.75 24.0938H23.25V22.2188H12.75V24.0938ZM9.46875 27.375H26.5312V10.7188H9.46875V27.375Z" fill="#101157"/>
</g>
<defs>
<clipPath id="clip0_3435_3471">
<rect width="36" height="36" fill="white"/>
</clipPath>
</defs>
</svg>
