<svg width="18" height="18" viewBox="0 0 18 18" fill="none" xmlns="http://www.w3.org/2000/svg">
<path fill-rule="evenodd" clip-rule="evenodd" d="M3 0.75H15C16.275 0.75 17.25 1.725 17.25 3V6C17.25 7.275 16.275 8.25 15 8.25H3C1.725 8.25 0.75 7.275 0.75 6V3C0.75 1.725 1.725 0.75 3 0.75ZM15 6.75C15.45 6.75 15.75 6.45 15.75 6V3C15.75 2.55 15.45 2.25 15 2.25H3C2.55 2.25 2.25 2.55 2.25 3V6C2.25 6.45 2.55 6.75 3 6.75H15ZM15 9.75H3C1.725 9.75 0.75 10.725 0.75 12V15C0.75 16.275 1.725 17.25 3 17.25H15C16.275 17.25 17.25 16.275 17.25 15V12C17.25 10.725 16.275 9.75 15 9.75ZM15 15.75C15.45 15.75 15.75 15.45 15.75 15V12C15.75 11.55 15.45 11.25 15 11.25H3C2.55 11.25 2.25 11.55 2.25 12V15C2.25 15.45 2.55 15.75 3 15.75H15ZM5.025 3.975C5.175 4.125 5.25 4.275 5.25 4.5C5.25 4.725 5.175 4.875 5.025 5.025C4.875 5.175 4.725 5.25 4.5 5.25C4.275 5.25 4.125 5.175 3.975 5.025L3.975 5.025C3.9 4.95 3.825 4.875 3.825 4.8C3.75 4.725 3.75 4.575 3.75 4.5C3.75 4.425 3.75 4.275 3.825 4.2C3.8625 4.1625 3.88125 4.125 3.9 4.0875C3.91875 4.05 3.9375 4.0125 3.975 3.975C4.05 3.9 4.125 3.825 4.2 3.825C4.425 3.75 4.575 3.75 4.8 3.825C4.875 3.825 4.95 3.9 5.025 3.975ZM5.25 13.5C5.25 13.275 5.175 13.125 5.025 12.975C4.725 12.675 4.275 12.675 3.975 12.975C3.9375 13.0125 3.91875 13.05 3.9 13.0875C3.88125 13.125 3.8625 13.1625 3.825 13.2C3.75 13.275 3.75 13.425 3.75 13.5C3.75 13.725 3.825 13.875 3.975 14.025C4.125 14.175 4.275 14.25 4.5 14.25C4.725 14.25 4.875 14.175 5.025 14.025C5.175 13.875 5.25 13.725 5.25 13.5Z" fill="#B4B7BD"/>
</svg>
