<svg width="20" height="20" viewBox="0 0 20 20" fill="none" xmlns="http://www.w3.org/2000/svg">
<path d="M9.72933 6C10.7902 6 11.8076 6.42143 12.5578 7.17157C13.3079 7.92172 13.7293 8.93913 13.7293 10C13.7293 11.0609 13.3079 12.0783 12.5578 12.8284C11.8076 13.5786 10.7902 14 9.72933 14C8.66847 14 7.65105 13.5786 6.9009 12.8284C6.15076 12.0783 5.72933 11.0609 5.72933 10C5.72933 8.93913 6.15076 7.92172 6.9009 7.17157C7.65105 6.42143 8.66847 6 9.72933 6ZM9.72933 8C9.1989 8 8.69019 8.21071 8.31512 8.58579C7.94005 8.96086 7.72933 9.46957 7.72933 10C7.72933 10.5304 7.94005 11.0391 8.31512 11.4142C8.69019 11.7893 9.1989 12 9.72933 12C10.2598 12 10.7685 11.7893 11.1435 11.4142C11.5186 11.0391 11.7293 10.5304 11.7293 10C11.7293 9.46957 11.5186 8.96086 11.1435 8.58579C10.7685 8.21071 10.2598 8 9.72933 8ZM7.72933 20C7.47933 20 7.26933 19.82 7.22933 19.58L6.85933 16.93C6.22933 16.68 5.68933 16.34 5.16933 15.94L2.67933 16.95C2.45933 17.03 2.18933 16.95 2.06933 16.73L0.0693316 13.27C-0.0606684 13.05 -0.000668302 12.78 0.189332 12.63L2.29933 10.97L2.22933 10L2.29933 9L0.189332 7.37C-0.000668302 7.22 -0.0606684 6.95 0.0693316 6.73L2.06933 3.27C2.18933 3.05 2.45933 2.96 2.67933 3.05L5.16933 4.05C5.68933 3.66 6.22933 3.32 6.85933 3.07L7.22933 0.42C7.26933 0.18 7.47933 0 7.72933 0H11.7293C11.9793 0 12.1893 0.18 12.2293 0.42L12.5993 3.07C13.2293 3.32 13.7693 3.66 14.2893 4.05L16.7793 3.05C16.9993 2.96 17.2693 3.05 17.3893 3.27L19.3893 6.73C19.5193 6.95 19.4593 7.22 19.2693 7.37L17.1593 9L17.2293 10L17.1593 11L19.2693 12.63C19.4593 12.78 19.5193 13.05 19.3893 13.27L17.3893 16.73C17.2693 16.95 16.9993 17.04 16.7793 16.95L14.2893 15.95C13.7693 16.34 13.2293 16.68 12.5993 16.93L12.2293 19.58C12.1893 19.82 11.9793 20 11.7293 20H7.72933ZM8.97933 2L8.60933 4.61C7.40933 4.86 6.34933 5.5 5.57933 6.39L3.16933 5.35L2.41933 6.65L4.52933 8.2C4.12933 9.37 4.12933 10.64 4.52933 11.8L2.40933 13.36L3.15933 14.66L5.58933 13.62C6.35933 14.5 7.40933 15.14 8.59933 15.38L8.96933 18H10.4893L10.8593 15.39C12.0493 15.14 13.0993 14.5 13.8693 13.62L16.2993 14.66L17.0493 13.36L14.9293 11.81C15.3293 10.64 15.3293 9.37 14.9293 8.2L17.0393 6.65L16.2893 5.35L13.8793 6.39C13.1093 5.5 12.0493 4.86 10.8493 4.62L10.4793 2H8.97933Z" fill="#B9B9C3"/>
</svg>
