<svg width="20" height="21" viewBox="0 0 20 21" fill="none" xmlns="http://www.w3.org/2000/svg">
<path d="M10 0.25C8.68678 0.25 7.38642 0.508658 6.17317 1.0112C4.95991 1.51375 3.85752 2.25035 2.92893 3.17893C1.05357 5.0543 0 7.59784 0 10.25C0 12.9022 1.05357 15.4457 2.92893 17.3211C3.85752 18.2497 4.95991 18.9862 6.17317 19.4888C7.38642 19.9913 8.68678 20.25 10 20.25C12.6522 20.25 15.1957 19.1964 17.0711 17.3211C18.9464 15.4457 20 12.9022 20 10.25C20 8.93678 19.7413 7.63642 19.2388 6.42317C18.7362 5.20991 17.9997 4.10752 17.0711 3.17893C16.1425 2.25035 15.0401 1.51375 13.8268 1.0112C12.6136 0.508658 11.3132 0.25 10 0.25ZM10 2.25C14.41 2.25 18 5.84 18 10.25C18 14.66 14.41 18.25 10 18.25C5.59 18.25 2 14.66 2 10.25C2 5.84 5.59 2.25 10 2.25ZM7 7.25V13.25H13V7.25" fill="#B9B9C3"/>
</svg>
