<svg width="18" height="18" viewBox="0 0 18 18" fill="none" xmlns="http://www.w3.org/2000/svg">
<path fill-rule="evenodd" clip-rule="evenodd" d="M3.01196 5.25C3.01196 3.15 4.66854 1.5 6.77691 1.5C8.88528 1.5 10.5419 3.15 10.5419 5.25C10.5419 7.35 8.88528 9 6.77691 9C4.66854 9 3.01196 7.35 3.01196 5.25ZM13.5538 14.25V15.75C13.5538 16.2 13.2526 16.5 12.8008 16.5C12.349 16.5 12.0478 16.2 12.0478 15.75V14.25C12.0478 12.975 11.0689 12 9.78887 12H3.76495C2.48487 12 1.50598 12.975 1.50598 14.25V15.75C1.50598 16.2 1.20478 16.5 0.75299 16.5C0.301196 16.5 0 16.2 0 15.75V14.25C0 12.15 1.65658 10.5 3.76495 10.5H9.78887C11.8972 10.5 13.5538 12.15 13.5538 14.25ZM6.77691 7.5C5.49682 7.5 4.51794 6.525 4.51794 5.25C4.51794 3.975 5.49682 3 6.77691 3C8.05699 3 9.03588 3.975 9.03588 5.25C9.03588 6.525 8.05699 7.5 6.77691 7.5ZM15.2104 10.65C14.8339 10.575 14.3821 10.8 14.3068 11.175C14.2315 11.55 14.4574 12 14.8339 12.075C15.8128 12.3 16.4905 13.2 16.4905 14.25V15.75C16.4905 16.2 16.7917 16.5 17.2435 16.5C17.6953 16.5 17.9965 16.2 17.9965 15.75V14.25C18.0718 12.525 16.9423 11.025 15.2104 10.65ZM11.2948 2.175C11.4454 1.725 11.8219 1.5 12.1984 1.65C14.2315 2.1 15.4363 4.2 14.9092 6.3C14.608 7.65 13.5538 8.625 12.1984 9H12.0478C11.6713 9 11.3701 8.775 11.2948 8.4C11.1442 8.025 11.4454 7.575 11.8219 7.5C12.6502 7.275 13.2526 6.675 13.4785 5.85C13.7797 4.575 13.0267 3.375 11.8219 3.075C11.4454 3 11.2195 2.55 11.2948 2.175Z" fill="#B4B7BD"/>
</svg>
