<svg width="16" height="19" viewBox="0 0 16 19" fill="none" xmlns="http://www.w3.org/2000/svg">
<path d="M14.2222 4.44444H12.4444C12.4444 1.95556 10.4889 0 8 0C5.51111 0 3.55556 1.95556 3.55556 4.44444H1.77778C0.8 4.44444 0 5.24444 0 6.22222V16.8889C0 17.8667 0.8 18.6667 1.77778 18.6667H14.2222C15.2 18.6667 16 17.8667 16 16.8889V6.22222C16 5.24444 15.2 4.44444 14.2222 4.44444ZM8 1.77778C9.51111 1.77778 10.6667 2.93333 10.6667 4.44444H5.33333C5.33333 2.93333 6.48889 1.77778 8 1.77778ZM14.2222 16.8889H1.77778V6.22222H14.2222V16.8889ZM8 9.77778C6.48889 9.77778 5.33333 8.62222 5.33333 7.11111H3.55556C3.55556 9.6 5.51111 11.5556 8 11.5556C10.4889 11.5556 12.4444 9.6 12.4444 7.11111H10.6667C10.6667 8.62222 9.51111 9.77778 8 9.77778Z" fill="#B9B9C3"/>
</svg>
