<svg xmlns="http://www.w3.org/2000/svg" xmlns:xlink="http://www.w3.org/1999/xlink" width="36" height="36" fill="none"><g clip-path="url(#A)"><circle cx="18" cy="18" r="18" fill="#00d0bf"/><use xlink:href="#B" fill="#101157"/><use xlink:href="#B" stroke="#000"/></g><defs><clipPath id="A"><path fill="#fff" d="M0 0h36v36H0z"/></clipPath><path id="B" d="M15.05 22.392c-.431 0-.794-.149-1.087-.447s-.44-.662-.44-1.094.149-.794.447-1.087.662-.44 1.094-.44.794.149 1.087.447.44.662.44 1.094-.149.794-.447 1.087-.662.44-1.094.44zm7.188 0c-.431 0-.794-.149-1.087-.447s-.44-.662-.44-1.094.149-.794.447-1.087.662-.44 1.094-.44.794.149 1.087.447.44.662.44 1.094-.149.794-.447 1.087-.662.44-1.094.44zm-3.602 6.904c2.697 0 4.98-.937 6.852-2.811s2.807-4.161 2.807-6.861a9.07 9.07 0 0 0-.114-1.436c-.076-.474-.17-.909-.284-1.307a7.83 7.83 0 0 1-1.229.199l-1.385.057c-1.839 0-3.577-.379-5.215-1.136a11.77 11.77 0 0 1-4.189-3.239c-.644 1.534-1.567 2.874-2.77 4.02s-2.58 2.033-4.134 2.66v.195c0 2.697.936 4.98 2.807 6.852s4.156 2.807 6.852 2.807zm-2.614-18.949c1.667 1.951 3.206 3.286 4.616 4.006s2.959 1.08 4.645 1.08l1.08-.028c.265-.019.559-.076.881-.17a10.82 10.82 0 0 0-3.48-3.779c-1.468-.985-3.177-1.477-5.128-1.477a8.82 8.82 0 0 0-1.449.114 10.06 10.06 0 0 0-1.165.256zm-6.79 7.074c.909-.341 1.946-1.113 3.111-2.315s1.993-2.656 2.486-4.361c-1.648.739-2.893 1.681-3.736 2.827S9.631 16 9.233 17.421zm-.909-2.585a11.37 11.37 0 0 1 2.273-3.239 11.37 11.37 0 0 1 3.239-2.273 4 4 0 0 0-1.363-1.179c-.549-.294-1.155-.44-1.819-.44a3.81 3.81 0 0 0-2.804 1.145c-.763.763-1.145 1.698-1.145 2.804 0 .663.147 1.27.44 1.819a4 4 0 0 0 1.179 1.363zM18.636 31c-1.572 0-3.049-.298-4.432-.895s-2.585-1.406-3.608-2.429-1.832-2.225-2.429-3.608-.895-2.86-.895-4.432a11.74 11.74 0 0 1 .114-1.634c.076-.54.189-1.056.341-1.548-.814-.492-1.473-1.16-1.974-2.003S5 12.676 5 11.653a5.45 5.45 0 0 1 1.648-4.006A5.45 5.45 0 0 1 10.653 6c1.004 0 1.927.241 2.77.724s1.52 1.151 2.031 2.003c.492-.152 1.009-.265 1.548-.341a11.74 11.74 0 0 1 1.634-.114c1.572 0 3.049.298 4.432.895s2.585 1.406 3.608 2.429 1.832 2.225 2.429 3.608.895 2.86.895 4.432-.298 3.049-.895 4.432-1.406 2.585-2.429 3.608-2.225 1.832-3.608 2.429-2.86.895-4.432.895z"/></defs></svg>
