<svg xmlns="http://www.w3.org/2000/svg" xmlns:xlink="http://www.w3.org/1999/xlink" viewBox="0 0 545.31 185.18"><defs><style>.cls-1{isolation:isolate;}.cls-2{fill:#000e33;}.cls-3{fill:#00d0bf;}.cls-4{opacity:0.6;mix-blend-mode:multiply;fill:url(#linear-gradient);}.cls-5{fill:#fff;}.cls-6{fill:#1f2572;}.cls-7{fill:#2e3192;}.cls-8{fill:#0f1a52;}</style><linearGradient id="linear-gradient" x1="109.23" y1="80.78" x2="59.35" y2="108.05" gradientUnits="userSpaceOnUse"><stop offset="0" stop-color="#1b1464"/><stop offset="1" stop-color="#9788fb" stop-opacity="0"/></linearGradient></defs><g class="cls-1"><g id="Layer_1" data-name="Layer 1"><path class="cls-2" d="M174.74,106.14a13.47,13.47,0,0,1-10.44,5c-8.7,0-15.64-6.57-15.64-18.55,0-11.55,6.8-18.49,15.64-18.49a13.12,13.12,0,0,1,10.44,5V61.51h11.18v48.72h-8.18a3,3,0,0,1-3-3Zm0-19A9.18,9.18,0,0,0,168,84c-4.46,0-7.75,3.29-7.75,8.55s3.29,8.62,7.75,8.62A9.26,9.26,0,0,0,174.74,98Z"/><path class="cls-2" d="M196.92,114.62c2.55,0,4.16-.51,4.75-2l.8-1.9-14-35.8h9.72a3,3,0,0,1,2.83,2l7.25,20.36,7.32-20.36a3,3,0,0,1,2.83-2h9.79l-15.92,40.32c-2.85,7.46-8.18,9.14-14.9,9.28a23.2,23.2,0,0,1-4.83-.58l1.1-6.84a3,3,0,0,1,3.09-2.52Z"/><path class="cls-2" d="M230.63,75h11.25v4.46a15.38,15.38,0,0,1,11-5.34v7.75a2.77,2.77,0,0,1-2.77,2.77h0c-2.93,0-6.8,1.24-8.26,3.29v22.35H230.63Z"/><path class="cls-2" d="M271.69,74.07c10.44,0,18,7.67,18,19.65h0a2.41,2.41,0,0,1-2.41,2.42H264.6c.66,3.28,3.73,6.28,9,6.28a14.85,14.85,0,0,0,7.08-1.9,2,2,0,0,1,2.68.59l3.6,5.33c-3.5,3.14-9.35,4.67-14.75,4.67-10.89,0-19.29-7.09-19.29-18.55C252.91,82.33,260.66,74.07,271.69,74.07Zm-7.24,14.76H279c-.29-2.48-2.12-6.06-7.3-6.06A7,7,0,0,0,264.45,88.83Z"/><path class="cls-2" d="M310.57,74.09c8.08-.26,13.1,3.23,15.29,6.49l-5.1,4.74a3,3,0,0,1-3.88.27,8,8,0,0,0-5-1.58c-4.67,0-8.25,3.21-8.25,8.55s3.58,8.62,8.25,8.62a7.94,7.94,0,0,0,5.43-2.05,2,2,0,0,1,2.71,0l5.81,5.47c-2.12,3.07-6.86,6.5-14.46,6.5-10.83,0-19-7.18-19.28-18C291.84,82.86,300.29,74.41,310.57,74.09Z"/><path class="cls-2" d="M346.93,102.53a2,2,0,0,0-2.29-1.47,6,6,0,0,1-1.14.12c-2,0-3.14-1.54-3.14-3.58V84.74h4.16a3,3,0,0,0,3-3V75h-7.16V65.31H329.18v35.43c0,6.79,3.88,10.37,11,10.37,4.17,0,7-1,8.33-2.34Z"/><path class="cls-2" d="M349.84,92.56c0-9.94,7.23-18.49,19.21-18.49s19.29,8.55,19.29,18.49-7.16,18.55-19.29,18.55S349.84,102.49,349.84,92.56Zm27,0c0-4.68-2.77-8.55-7.74-8.55s-7.6,3.87-7.6,8.55,2.71,8.62,7.6,8.62S376.79,97.3,376.79,92.56Z"/><path class="cls-2" d="M393.09,75h11.25v4.46a15.4,15.4,0,0,1,11-5.34v7.85a2.69,2.69,0,0,1-2.74,2.67h0c-2.92,0-6.8,1.24-8.26,3.29v22.35H393.09Z"/><path class="cls-2" d="M419.28,97.38a6.87,6.87,0,1,1-6.86,6.86A7,7,0,0,1,419.28,97.38Z"/><path class="cls-2" d="M432.54,64.07A6.43,6.43,0,1,1,439,70.49,6.39,6.39,0,0,1,432.54,64.07Zm.8,10.88h11.25v35.28H433.34Z"/><path class="cls-2" d="M449.06,92.56c0-9.94,7.23-18.49,19.21-18.49,12.13,0,19.29,8.55,19.29,18.49s-7.16,18.55-19.29,18.55C456.29,111.11,449.06,102.49,449.06,92.56Zm27,0c0-4.68-2.78-8.55-7.75-8.55s-7.59,3.87-7.59,8.55,2.7,8.62,7.59,8.62S476,97.3,476,92.56Z"/><path class="cls-3" d="M102.9,117.91a14,14,0,0,0,7.25-12.26V77.58a5.78,5.78,0,0,0-8.57-5.06L64.9,92.73A14,14,0,0,0,57.66,105v32.77a3,3,0,0,0,4.45,2.62Z"/><path class="cls-4" d="M101.58,72.52,64.9,92.73A14,14,0,0,0,57.66,105v16.43l52.49-28.85v-15A5.78,5.78,0,0,0,101.58,72.52Z"/><path class="cls-5" d="M105,68.57,58,42.77l-.21,15.17a10,10,0,0,0,5.18,8.91l47.24,26,0-15.47A10,10,0,0,0,105,68.57Z"/><polygon class="cls-6" points="80.42 55.1 72.53 50.77 72.53 72.12 80.42 76.46 80.42 55.1"/><path class="cls-7" d="M65.54,46.93,58,42.77l-.21,15.17a10,10,0,0,0,5.18,8.91l2.61,1.43Z"/><path class="cls-2" d="M105,68.57l-2.63-1.44V88.5l7.84,4.3,0-15.47A10,10,0,0,0,105,68.57Z"/><polygon class="cls-8" points="95.29 63.26 87.43 58.95 87.43 80.31 95.29 84.63 95.29 63.26"/></g></g></svg>