<svg width="46" height="46" viewBox="0 0 46 46" fill="none" xmlns="http://www.w3.org/2000/svg">
<circle cx="23" cy="23" r="23" fill="#28C76F" fill-opacity="0.12"/>
<path fill-rule="evenodd" clip-rule="evenodd" d="M15.832 13.8333H12.9167C12.4104 13.8333 12 13.4229 12 12.9167C12 12.4104 12.4104 12 12.9167 12H16.5833C17.0202 12 17.3964 12.3084 17.4822 12.7368L18.2521 16.5833H33.0833C33.6584 16.5833 34.0915 17.1068 33.9838 17.6717L32.5158 25.3694C32.2563 26.676 31.0976 27.6087 29.7833 27.5833L20.8909 27.5832C19.559 27.6087 18.4004 26.676 18.1412 25.3707L16.6097 17.7193C16.6035 17.694 16.5984 17.6682 16.5943 17.6422L15.832 13.8333ZM18.4167 31.2515C18.4167 32.3524 19.1494 33.0863 20.2485 33.0863C21.3476 33.0863 22.0803 32.3524 22.0803 31.2515C22.0803 30.1506 21.3476 29.4167 20.2485 29.4167C19.1494 29.4167 18.4167 30.1506 18.4167 31.2515ZM28.5 31.25C28.5 32.35 29.2327 33.0833 30.3318 33.0833C31.4309 33.0833 32.1637 32.35 32.1637 31.25C32.1637 30.15 31.4309 29.4167 30.3318 29.4167C29.2327 29.4167 28.5 30.15 28.5 31.25ZM19.9391 25.0123L18.619 18.4167H31.9753L30.7162 25.0191C30.6311 25.4478 30.2448 25.7587 29.8009 25.7502L20.8733 25.75C20.4118 25.7587 20.0256 25.4478 19.9391 25.0123Z" fill="black"/>
<mask id="mask0_2334_20458" style="mask-type:alpha" maskUnits="userSpaceOnUse" x="12" y="12" width="23" height="22">
<path fill-rule="evenodd" clip-rule="evenodd" d="M15.832 13.8333H12.9167C12.4104 13.8333 12 13.4229 12 12.9167C12 12.4104 12.4104 12 12.9167 12H16.5833C17.0202 12 17.3964 12.3084 17.4822 12.7368L18.2521 16.5833H33.0833C33.6584 16.5833 34.0915 17.1068 33.9838 17.6717L32.5158 25.3694C32.2563 26.676 31.0976 27.6087 29.7833 27.5833L20.8909 27.5832C19.559 27.6087 18.4004 26.676 18.1412 25.3707L16.6097 17.7193C16.6035 17.694 16.5984 17.6682 16.5943 17.6422L15.832 13.8333ZM18.4167 31.2515C18.4167 32.3524 19.1494 33.0863 20.2485 33.0863C21.3476 33.0863 22.0803 32.3524 22.0803 31.2515C22.0803 30.1506 21.3476 29.4167 20.2485 29.4167C19.1494 29.4167 18.4167 30.1506 18.4167 31.2515ZM28.5 31.25C28.5 32.35 29.2327 33.0833 30.3318 33.0833C31.4309 33.0833 32.1637 32.35 32.1637 31.25C32.1637 30.15 31.4309 29.4167 30.3318 29.4167C29.2327 29.4167 28.5 30.15 28.5 31.25ZM19.9391 25.0123L18.619 18.4167H31.9753L30.7162 25.0191C30.6311 25.4478 30.2448 25.7587 29.8009 25.7502L20.8733 25.75C20.4118 25.7587 20.0256 25.4478 19.9391 25.0123Z" fill="white"/>
</mask>
<g mask="url(#mask0_2334_20458)">
<rect x="12" y="12" width="22" height="22" fill="#28C76F"/>
</g>
</svg>
