<svg width="46" height="46" viewBox="0 0 46 46" fill="none" xmlns="http://www.w3.org/2000/svg">
<circle cx="23" cy="23" r="23" fill="#EA5455" fill-opacity="0.12"/>
<path fill-rule="evenodd" clip-rule="evenodd" d="M34.7 21.3L31.7 18.3C31.5 18.1 31.3 18 31 18H28V14C28 13.4 27.6 13 27 13H12C11.4 13 11 13.4 11 14V27C11 27.6 11.4 28 12 28H13.4C13.1 28.5 13 29 13 29.5C13 31.4 14.6 33 16.5 33C18.4 33 20 31.4 20 29.5C20 29 19.9 28.5 19.6 28H26.3C26.1 28.5 25.9 29 25.9 29.5C25.9 31.4 27.5 33 29.4 33C31.3 33 32.9 31.4 32.9 29.5C32.9 29 32.8 28.5 32.5 28H34C34.6 28 35 27.6 35 27V22C35 21.7 34.9 21.5 34.7 21.3ZM13 15H26V19V26H13V15ZM16.5 31C17.3 31 18 30.3 18 29.5C18 28.7 17.3 28 16.5 28C15.7 28 15 28.7 15 29.5C15 30.3 15.7 31 16.5 31ZM31 29.5C31 30.3 30.3 31 29.5 31C28.7 31 28 30.3 28 29.5C28 28.7 28.7 28 29.5 28C30.3 28 31 28.7 31 29.5ZM28 26H33V22.4L30.6 20H28V26Z" fill="black"/>
<mask id="mask0_2334_20444" style="mask-type:alpha" maskUnits="userSpaceOnUse" x="11" y="13" width="24" height="20">
<path fill-rule="evenodd" clip-rule="evenodd" d="M34.7 21.3L31.7 18.3C31.5 18.1 31.3 18 31 18H28V14C28 13.4 27.6 13 27 13H12C11.4 13 11 13.4 11 14V27C11 27.6 11.4 28 12 28H13.4C13.1 28.5 13 29 13 29.5C13 31.4 14.6 33 16.5 33C18.4 33 20 31.4 20 29.5C20 29 19.9 28.5 19.6 28H26.3C26.1 28.5 25.9 29 25.9 29.5C25.9 31.4 27.5 33 29.4 33C31.3 33 32.9 31.4 32.9 29.5C32.9 29 32.8 28.5 32.5 28H34C34.6 28 35 27.6 35 27V22C35 21.7 34.9 21.5 34.7 21.3ZM13 15H26V19V26H13V15ZM16.5 31C17.3 31 18 30.3 18 29.5C18 28.7 17.3 28 16.5 28C15.7 28 15 28.7 15 29.5C15 30.3 15.7 31 16.5 31ZM31 29.5C31 30.3 30.3 31 29.5 31C28.7 31 28 30.3 28 29.5C28 28.7 28.7 28 29.5 28C30.3 28 31 28.7 31 29.5ZM28 26H33V22.4L30.6 20H28V26Z" fill="white"/>
</mask>
<g mask="url(#mask0_2334_20444)">
<rect x="11" y="11" width="24" height="24" fill="#EA5455"/>
</g>
</svg>
