<svg width="46" height="46" viewBox="0 0 46 46" fill="none" xmlns="http://www.w3.org/2000/svg">
<circle cx="23" cy="23" r="23" fill="#EA5455" fill-opacity="0.12"/>
<path fill-rule="evenodd" clip-rule="evenodd" d="M23.7 12.2995L29.4 17.8995C32.9 21.4995 32.9 27.1995 29.4 30.6995C27.7 32.3995 25.4 33.2995 23 33.2995C20.6 33.2995 18.3 32.3995 16.6 30.6995C14.9 28.9995 14 26.6995 14 24.2995C14 21.8995 14.9 19.5995 16.7 17.8995L22.3 12.2995C22.5 12.0995 22.7 11.9995 23 11.9995C23.3 11.9995 23.5 12.0995 23.7 12.2995ZM23 31.3C24.9 31.3 26.6 30.6 28 29.3C30.7 26.5 30.7 22.1 27.9 19.4L22.9 14.4L18 19.4C16.7 20.7 16 22.4 16 24.3C16 26.2 16.7 27.9 18.1 29.3C19.4 30.6 21.1 31.3 23 31.3Z" fill="black"/>
<mask id="mask0_2334_20472" style="mask-type:alpha" maskUnits="userSpaceOnUse" x="14" y="11" width="19" height="23">
<path fill-rule="evenodd" clip-rule="evenodd" d="M23.7 12.2995L29.4 17.8995C32.9 21.4995 32.9 27.1995 29.4 30.6995C27.7 32.3995 25.4 33.2995 23 33.2995C20.6 33.2995 18.3 32.3995 16.6 30.6995C14.9 28.9995 14 26.6995 14 24.2995C14 21.8995 14.9 19.5995 16.7 17.8995L22.3 12.2995C22.5 12.0995 22.7 11.9995 23 11.9995C23.3 11.9995 23.5 12.0995 23.7 12.2995ZM23 31.3C24.9 31.3 26.6 30.6 28 29.3C30.7 26.5 30.7 22.1 27.9 19.4L22.9 14.4L18 19.4C16.7 20.7 16 22.4 16 24.3C16 26.2 16.7 27.9 18.1 29.3C19.4 30.6 21.1 31.3 23 31.3Z" fill="white"/>
</mask>
<g mask="url(#mask0_2334_20472)">
<rect x="11" y="11" width="24" height="24" fill="#EA5455"/>
</g>
</svg>
