<svg width="46" height="46" viewBox="0 0 46 46" fill="none" xmlns="http://www.w3.org/2000/svg">
<circle cx="23" cy="23" r="23" fill="#00CFE8" fill-opacity="0.12"/>
<path fill-rule="evenodd" clip-rule="evenodd" d="M17.4444 17.25C17.4444 14.31 19.8889 12 23 12C26.1111 12 28.5556 14.31 28.5556 17.25C28.5556 20.19 26.1111 22.5 23 22.5C19.8889 22.5 17.4444 20.19 17.4444 17.25ZM33 29.85V31.95C33 32.58 32.5556 33 31.8889 33C31.2222 33 30.7778 32.58 30.7778 31.95V29.85C30.7778 28.065 29.3333 26.7 27.4444 26.7H18.5556C16.6667 26.7 15.2222 28.065 15.2222 29.85V31.95C15.2222 32.58 14.7778 33 14.1111 33C13.4444 33 13 32.58 13 31.95V29.85C13 26.91 15.4444 24.6 18.5556 24.6H27.4444C30.5556 24.6 33 26.91 33 29.85ZM23 20.4C21.1111 20.4 19.6667 19.035 19.6667 17.25C19.6667 15.465 21.1111 14.1 23 14.1C24.8889 14.1 26.3333 15.465 26.3333 17.25C26.3333 19.035 24.8889 20.4 23 20.4Z" fill="#00CFE8"/>
<mask id="mask0_0_1" style="mask-type:alpha" maskUnits="userSpaceOnUse" x="13" y="12" width="20" height="21">
<path fill-rule="evenodd" clip-rule="evenodd" d="M17.4444 17.25C17.4444 14.31 19.8889 12 23 12C26.1111 12 28.5556 14.31 28.5556 17.25C28.5556 20.19 26.1111 22.5 23 22.5C19.8889 22.5 17.4444 20.19 17.4444 17.25ZM33 29.85V31.95C33 32.58 32.5556 33 31.8889 33C31.2222 33 30.7778 32.58 30.7778 31.95V29.85C30.7778 28.065 29.3333 26.7 27.4444 26.7H18.5556C16.6667 26.7 15.2222 28.065 15.2222 29.85V31.95C15.2222 32.58 14.7778 33 14.1111 33C13.4444 33 13 32.58 13 31.95V29.85C13 26.91 15.4444 24.6 18.5556 24.6H27.4444C30.5556 24.6 33 26.91 33 29.85ZM23 20.4C21.1111 20.4 19.6667 19.035 19.6667 17.25C19.6667 15.465 21.1111 14.1 23 14.1C24.8889 14.1 26.3333 15.465 26.3333 17.25C26.3333 19.035 24.8889 20.4 23 20.4Z" fill="white"/>
</mask>
<g mask="url(#mask0_0_1)">
<rect x="9.6665" y="9.8999" width="26.6667" height="25.2" fill="#00CFE8"/>
</g>
</svg>
