<svg width="46" height="46" viewBox="0 0 46 46" fill="none" xmlns="http://www.w3.org/2000/svg">
<circle cx="23" cy="23" r="23" fill="#7367F0" fill-opacity="0.12"/>
<path d="M32.9091 12H14.0909C12.9409 12 12 12.945 12 14.1V30.9C12 32.055 12.9409 33 14.0909 33H32.9091C34.0591 33 35 32.055 35 30.9V14.1C35 12.945 34.0591 12 32.9091 12ZM32.9091 30.9H14.0909V16.2H32.9091V30.9ZM20.3636 18.3C19.2136 18.3 18.2727 19.245 18.2727 20.4C18.2727 21.555 17.3318 22.5 16.1818 22.5V24.6C17.3318 24.6 18.2727 25.545 18.2727 26.7C18.2727 27.855 19.2136 28.8 20.3636 28.8H22.4545V26.7H20.3636V25.65C20.3636 24.495 19.4227 23.55 18.2727 23.55C19.4227 23.55 20.3636 22.605 20.3636 21.45V20.4H22.4545V18.3M26.6364 18.3C27.7864 18.3 28.7273 19.245 28.7273 20.4C28.7273 21.555 29.6682 22.5 30.8182 22.5V24.6C29.6682 24.6 28.7273 25.545 28.7273 26.7C28.7273 27.855 27.7864 28.8 26.6364 28.8H24.5455V26.7H26.6364V25.65C26.6364 24.495 27.5773 23.55 28.7273 23.55C27.5773 23.55 26.6364 22.605 26.6364 21.45V20.4H24.5455V18.3H26.6364Z" fill="#7367F0"/>
</svg>
