<svg xmlns="http://www.w3.org/2000/svg" xmlns:xlink="http://www.w3.org/1999/xlink" width="183" height="41.688" viewBox="0 0 183 41.688"><defs><style>.a{fill:#000e33;}.b{fill:#00d0bf;}.c{opacity:0.6;fill:url(#a);}.d{fill:#fff;}.e{fill:#1f2572;}.f{fill:#2e3192;}.g{fill:#0f1a52;}</style><linearGradient id="a" x1="0.982" y1="0.181" x2="0.032" y2="0.73" gradientUnits="objectBoundingBox"><stop offset="0" stop-color="#1b1464"/><stop offset="1" stop-color="#9788fb" stop-opacity="0"/></linearGradient></defs><g transform="translate(0)"><g transform="translate(0 0)"><path class="a" d="M159.762,80.5a5.735,5.735,0,0,1-4.444,2.127c-3.7,0-6.658-2.795-6.658-7.891,0-4.914,2.895-7.866,6.658-7.866a5.586,5.586,0,0,1,4.444,2.127V61.51h4.759V82.236h-3.482a1.277,1.277,0,0,1-1.277-1.276Zm0-8.083a3.909,3.909,0,0,0-2.869-1.336c-1.9,0-3.3,1.4-3.3,3.637s1.4,3.667,3.3,3.667a3.943,3.943,0,0,0,2.869-1.349Z" transform="translate(-109.923 -53.538)"/><path class="a" d="M192.067,91.809c1.085,0,1.771-.217,2.022-.851l.341-.808-5.96-15.23h4.138a1.277,1.277,0,0,1,1.2.851l3.086,8.661,3.116-8.661a1.277,1.277,0,0,1,1.2-.851h4.167L198.61,92.073c-1.213,3.174-3.482,3.888-6.343,3.948a9.882,9.882,0,0,1-2.056-.247l.468-2.91a1.277,1.277,0,0,1,1.315-1.072Z" transform="translate(-132.787 -61.243)"/><path class="a" d="M230.63,74.494h4.789v1.9A6.548,6.548,0,0,1,240.1,74.12v3.3a1.179,1.179,0,0,1-1.179,1.178h0a4.767,4.767,0,0,0-3.516,1.4V89.5H230.63Z" transform="translate(-157 -60.783)"/><path class="a" d="M260.91,74.07c4.444,0,7.662,3.263,7.662,8.359h0a1.026,1.026,0,0,1-1.026,1.03h-9.654c.281,1.4,1.588,2.672,3.831,2.672a6.325,6.325,0,0,0,3.014-.808.852.852,0,0,1,1.141.251l1.532,2.267a9.8,9.8,0,0,1-6.279,1.987c-4.636,0-8.211-3.016-8.211-7.891A7.747,7.747,0,0,1,260.91,74.07Zm-3.082,6.279h6.194a2.885,2.885,0,0,0-3.107-2.578,2.979,2.979,0,0,0-3.086,2.578Z" transform="translate(-169.802 -60.754)"/><path class="a" d="M299.953,74.082c3.439-.111,5.576,1.374,6.509,2.761l-2.171,2.016a1.278,1.278,0,0,1-1.652.115,3.68,3.68,0,1,0,.183,5.76.852.852,0,0,1,1.154,0l2.473,2.327a7.274,7.274,0,0,1-6.155,2.765c-4.61,0-8.088-3.054-8.207-7.658A8.047,8.047,0,0,1,299.953,74.082Z" transform="translate(-192.295 -60.758)"/><path class="a" d="M336.736,81.144a.851.851,0,0,0-.975-.625,2.556,2.556,0,0,1-.485.051,1.355,1.355,0,0,1-1.337-1.523V73.576h1.771a1.277,1.277,0,0,0,1.277-1.276V69.432h-3.048V65.31H329.18V80.383c0,2.889,1.652,4.412,4.682,4.412a5.124,5.124,0,0,0,3.546-1Z" transform="translate(-213.599 -55.721)"/><path class="a" d="M349.84,81.936a7.743,7.743,0,0,1,8.177-7.866c5.1,0,8.211,3.637,8.211,7.866s-3.048,7.891-8.211,7.891S349.84,86.16,349.84,81.936Zm11.493,0c0-1.991-1.179-3.637-3.295-3.637s-3.235,1.646-3.235,3.637,1.154,3.667,3.235,3.667,3.273-1.651,3.273-3.667Z" transform="translate(-225.465 -60.754)"/><path class="a" d="M393.09,74.494h4.789v1.9a6.557,6.557,0,0,1,4.683-2.272v3.34A1.145,1.145,0,0,1,401.4,78.6h0a4.774,4.774,0,0,0-3.516,1.4V89.5H393.09Z" transform="translate(-250.304 -60.783)"/><path class="a" d="M415.34,97.38a2.923,2.923,0,1,1-2.92,2.918A2.979,2.979,0,0,1,415.34,97.38Z" transform="translate(-261.406 -74.148)"/><path class="a" d="M432.54,60.37a2.719,2.719,0,1,1,.8,1.941A2.736,2.736,0,0,1,432.54,60.37ZM432.881,65h4.789V80.007h-4.789Z" transform="translate(-272.961 -51.308)"/><path class="a" d="M449.06,81.936a7.743,7.743,0,0,1,8.177-7.866c5.164,0,8.211,3.637,8.211,7.866s-3.048,7.891-8.211,7.891A7.765,7.765,0,0,1,449.06,81.936Zm11.493,0c0-1.991-1.183-3.637-3.3-3.637s-3.231,1.646-3.231,3.637,1.149,3.667,3.231,3.667,3.273-1.651,3.273-3.667Z" transform="translate(-282.449 -60.754)"/><path class="b" d="M76.918,91.417A5.955,5.955,0,0,0,80,86.2V74.26a2.46,2.46,0,0,0-3.648-2.153l-15.614,8.6a5.955,5.955,0,0,0-3.082,5.22V99.866a1.277,1.277,0,0,0,1.894,1.115Z" transform="translate(-57.66 -59.451)"/><path class="c" d="M76.356,72.107l-15.614,8.6a5.955,5.955,0,0,0-3.082,5.22v6.99L80,80.641V74.26a2.46,2.46,0,0,0-3.648-2.153Z" transform="translate(-57.66 -59.451)"/><path class="d" d="M77.886,53.746,57.879,42.77l-.089,6.454a4.254,4.254,0,0,0,2.205,3.79L80.1,64.075V57.494a4.254,4.254,0,0,0-2.218-3.748Z" transform="translate(-57.734 -42.77)"/><path class="e" d="M75.889,52.612,72.53,50.77v9.083L75.889,61.7Z" transform="translate(-66.2 -47.367)"/><path class="f" d="M61.088,44.54l-3.21-1.77-.089,6.454a4.254,4.254,0,0,0,2.205,3.79l1.111.608Z" transform="translate(-57.734 -42.77)"/><path class="a" d="M103.49,67.743l-1.12-.613v9.091l3.337,1.829V71.469A4.254,4.254,0,0,0,103.49,67.743Z" transform="translate(-83.338 -56.767)"/><path class="g" d="M90.776,60.784,87.43,58.95v9.087l3.346,1.838Z" transform="translate(-74.757 -52.067)"/></g></g></svg>