<svg xmlns="http://www.w3.org/2000/svg" width="31.404" height="30.75" viewBox="0 0 31.404 30.75"><defs><style>.a{fill:none;}.b{fill:#3e75c3;fill-rule:evenodd;}</style></defs><g transform="translate(0 -0.278)"><g transform="translate(0 0.278)"><rect class="a" width="30.619" height="30.619" transform="translate(0.392 0.065)"/><path class="b" d="M15.7,1.333a15.774,15.774,0,0,0-4.962,30.723c.785.145,1.072-.342,1.072-.76,0-.374-.014-1.366-.022-2.681C7.421,29.568,6.5,26.5,6.5,26.5A4.168,4.168,0,0,0,4.757,24.2c-1.426-.978.108-.959.108-.959a3.3,3.3,0,0,1,2.4,1.625,3.336,3.336,0,0,0,4.57,1.309,3.372,3.372,0,0,1,1-2.107c-3.487-.4-7.152-1.75-7.152-7.79A6.106,6.106,0,0,1,7.3,12.043a5.688,5.688,0,0,1,.153-4.172s1.319-.424,4.318,1.616a14.814,14.814,0,0,1,7.863,0c3-2.04,4.313-1.616,4.313-1.616a5.678,5.678,0,0,1,.156,4.172,6.1,6.1,0,0,1,1.614,4.231c0,6.055-3.671,7.388-7.169,7.779a3.771,3.771,0,0,1,1.066,2.919c0,2.107-.02,3.807-.02,4.324,0,.422.283.912,1.08.758A15.775,15.775,0,0,0,15.7,1.333" transform="translate(0 -1.333)"/></g></g></svg>