<svg xmlns="http://www.w3.org/2000/svg" width="30.094" height="30.75" viewBox="0 0 30.094 30.75"><defs><style>.a{fill:none;}.b{fill:#fbbc05;}.b,.c,.d,.e{fill-rule:evenodd;}.c{fill:#ea4335;}.d{fill:#34a853;}.e{fill:#4285f4;}</style></defs><g transform="translate(254.672 6)"><g transform="translate(-255 -6)"><rect class="a" width="30" height="30" transform="translate(0.375 0.375)"/><path class="b" d="M-247.335,36.459a9.09,9.09,0,0,1,.462-2.854l-5.182-3.957a15.367,15.367,0,0,0-1.579,6.811,15.37,15.37,0,0,0,1.577,6.806l5.179-3.965a9.1,9.1,0,0,1-.457-2.842" transform="translate(253.962 -21.084)"/><path class="c" d="M-233.244.29a8.909,8.909,0,0,1,5.669,2.027l4.479-4.473A15.338,15.338,0,0,0-233.244-6a15.351,15.351,0,0,0-13.818,8.564l5.182,3.957A9.074,9.074,0,0,1-233.244.29" transform="translate(248.969 6)"/><path class="d" d="M-233.244,76.112a9.074,9.074,0,0,1-8.636-6.231l-5.182,3.956A15.35,15.35,0,0,0-233.244,82.4a14.673,14.673,0,0,0,10.032-3.832l-4.919-3.8a9.525,9.525,0,0,1-5.113,1.345" transform="translate(248.969 -51.652)"/><path class="e" d="M-174.846,49.159a12.735,12.735,0,0,0-.35-2.8h-14.347V52.3h8.258a6.924,6.924,0,0,1-3.145,4.6l4.919,3.8a15.291,15.291,0,0,0,4.665-11.543" transform="translate(205.268 -33.784)"/></g></g></svg>