<svg xmlns="http://www.w3.org/2000/svg" height="69.018" width="65.755"><path d="M33.38 0L0 40.031l33.38 28.988 32.376-29.113zm-.627 18.007a4.97 4.97 0 0 1 4.957 4.957c0 1.22-.46 2.338-1.192 3.2l7.341 8.533c.823-.613 1.843-.941 2.949-.941a4.97 4.97 0 0 1 4.957 4.957c0 2.73-2.226 4.894-4.957 4.894-1.609 0-2.987-.755-3.89-1.945l-5.772 5.082c.342.672.565 1.39.565 2.196a4.97 4.97 0 0 1-4.957 4.957 4.97 4.97 0 0 1-4.957-4.957c0-1.106.39-2.125 1.004-2.949l-4.329-3.953c-.903.974-2.206 1.569-3.639 1.569-2.73 0-4.957-2.164-4.957-4.894a4.97 4.97 0 0 1 4.957-4.957c.614 0 1.214.109 1.757.314l6.4-7.906c-.732-.862-1.192-1.98-1.192-3.2a4.97 4.97 0 0 1 4.957-4.957zm-2.384 9.286l-6.212 7.78c.987.904 1.631 2.196 1.631 3.639 0 .683-.126 1.291-.376 1.882l4.58 4.267c.789-.533 1.737-.878 2.761-.878 1.397 0 2.677.574 3.576 1.506l5.835-5.208c-.175-.507-.251-1.002-.251-1.569 0-.975.266-1.932.753-2.698l-7.592-8.721c-.695.373-1.478.627-2.322.627-.863 0-1.678-.239-2.384-.627z" fill="#00bcf2"/></svg>
