<svg xmlns="http://www.w3.org/2000/svg" height="236" preserveAspectRatio="xMidYMid" width="256"><path d="M128.075 236.075l47.104-144.97H80.971z" fill="#e24329"/><path d="M128.075 236.074L80.971 91.104H14.956z" fill="#fc6d26"/><path d="M14.956 91.104L.642 135.16a9.75 9.75 0 0 0 3.543 10.903l123.891 90.012z" fill="#fca326"/><path d="M14.956 91.105h66.015L52.6 3.79c-1.459-4.493-7.815-4.492-9.275 0z" fill="#e24329"/><path d="M128.075 236.074l47.104-144.97h66.015z" fill="#fc6d26"/><path d="M241.194 91.104l14.314 44.055a9.75 9.75 0 0 1-3.543 10.903l-123.891 90.012z" fill="#fca326"/><path d="M241.194 91.105h-66.015L203.55 3.79c1.459-4.493 7.815-4.492 9.275 0z" fill="#e24329"/></svg>
