<svg xmlns="http://www.w3.org/2000/svg" width="30.094" height="30.75" fill-rule="evenodd"><path d="M6.299 15.375a9.09 9.09 0 0 1 .462-2.854L1.579 8.564C.536 10.683-.004 13.013 0 15.375a15.37 15.37 0 0 0 1.577 6.806l5.179-3.965a9.1 9.1 0 0 1-.457-2.842" fill="#fbbc05"/><path d="M15.397 6.29a8.91 8.91 0 0 1 5.669 2.027l4.479-4.473A15.34 15.34 0 0 0 15.397 0 15.35 15.35 0 0 0 1.579 8.564l5.182 3.957c1.229-3.725 4.713-6.239 8.636-6.231" fill="#ea4335"/><path d="M15.397 24.46c-3.923.008-7.407-2.506-8.636-6.231l-5.182 3.956a15.35 15.35 0 0 0 13.818 8.563c3.708.036 7.292-1.333 10.032-3.832l-4.919-3.8c-1.543.922-3.316 1.388-5.113 1.345" fill="#34a853"/><path d="M30.094 15.375c-.013-.943-.13-1.883-.35-2.8H15.397v5.941h8.258c-.358 1.906-1.499 3.575-3.145 4.6l4.919 3.8a15.29 15.29 0 0 0 4.665-11.543" fill="#4285f4"/></svg>
