<svg width="51" height="50" viewBox="0 0 51 50" fill="none" xmlns="http://www.w3.org/2000/svg">
<ellipse cx="25.389" cy="25" rx="25.0667" ry="25" fill="#B9B9C3" fill-opacity="0.3"/>
<path fill-rule="evenodd" clip-rule="evenodd" d="M18.2016 16.8333H15.2785C14.7709 16.8333 14.3594 16.4229 14.3594 15.9167C14.3594 15.4104 14.7709 15 15.2785 15H18.9549C19.393 15 19.7702 15.3084 19.8562 15.7368L20.6281 19.5833H35.499C36.0756 19.5833 36.5098 20.1068 36.4018 20.6717L34.9299 28.3694C34.6697 29.676 33.508 30.6087 32.1902 30.5833L23.274 30.5832C21.9386 30.6087 20.7769 29.676 20.5169 28.3707L18.9814 20.7193C18.9752 20.694 18.97 20.6682 18.9659 20.6422L18.2016 16.8333ZM20.7932 34.2515C20.7932 35.3524 21.5279 36.0863 22.6299 36.0863C23.7319 36.0863 24.4666 35.3524 24.4666 34.2515C24.4666 33.1506 23.7319 32.4167 22.6299 32.4167C21.5279 32.4167 20.7932 33.1506 20.7932 34.2515ZM30.9034 34.25C30.9034 35.35 31.6381 36.0833 32.7401 36.0833C33.8422 36.0833 34.5769 35.35 34.5769 34.25C34.5769 33.15 33.8422 32.4167 32.7401 32.4167C31.6381 32.4167 30.9034 33.15 30.9034 34.25ZM22.3197 28.0123L20.996 21.4167H34.388L33.1256 28.0191C33.0402 28.4478 32.6529 28.7587 32.2078 28.7502L23.2564 28.75C22.7936 28.7587 22.4064 28.4478 22.3197 28.0123Z" fill="black"/>
<mask id="mask0_1736_14678" style="mask-type:alpha" maskUnits="userSpaceOnUse" x="14" y="15" width="23" height="22">
<path fill-rule="evenodd" clip-rule="evenodd" d="M18.2016 16.8333H15.2785C14.7709 16.8333 14.3594 16.4229 14.3594 15.9167C14.3594 15.4104 14.7709 15 15.2785 15H18.9549C19.393 15 19.7702 15.3084 19.8562 15.7368L20.6281 19.5833H35.499C36.0756 19.5833 36.5098 20.1068 36.4018 20.6717L34.9299 28.3694C34.6697 29.676 33.508 30.6087 32.1902 30.5833L23.274 30.5832C21.9386 30.6087 20.7769 29.676 20.5169 28.3707L18.9814 20.7193C18.9752 20.694 18.97 20.6682 18.9659 20.6422L18.2016 16.8333ZM20.7932 34.2515C20.7932 35.3524 21.5279 36.0863 22.6299 36.0863C23.7319 36.0863 24.4666 35.3524 24.4666 34.2515C24.4666 33.1506 23.7319 32.4167 22.6299 32.4167C21.5279 32.4167 20.7932 33.1506 20.7932 34.2515ZM30.9034 34.25C30.9034 35.35 31.6381 36.0833 32.7401 36.0833C33.8422 36.0833 34.5769 35.35 34.5769 34.25C34.5769 33.15 33.8422 32.4167 32.7401 32.4167C31.6381 32.4167 30.9034 33.15 30.9034 34.25ZM22.3197 28.0123L20.996 21.4167H34.388L33.1256 28.0191C33.0402 28.4478 32.6529 28.7587 32.2078 28.7502L23.2564 28.75C22.7936 28.7587 22.4064 28.4478 22.3197 28.0123Z" fill="white"/>
</mask>
<g mask="url(#mask0_1736_14678)">
<rect x="14.3594" y="15" width="22.0587" height="22" fill="#283046"/>
</g>
</svg>
