<svg width="51" height="50" viewBox="0 0 51 50" fill="none" xmlns="http://www.w3.org/2000/svg">
<ellipse cx="25.241" cy="25" rx="25.0667" ry="25" fill="#B9B9C3" fill-opacity="0.3"/>
<path fill-rule="evenodd" clip-rule="evenodd" d="M18.0555 14.958H33.4298C35.0633 14.958 36.3125 16.2038 36.3125 17.833V21.6663C36.3125 23.2955 35.0633 24.5413 33.4298 24.5413H18.0555C16.422 24.5413 15.1729 23.2955 15.1729 21.6663V17.833C15.1729 16.2038 16.422 14.958 18.0555 14.958ZM33.4298 22.6252C34.0063 22.6252 34.3907 22.2418 34.3907 21.6668V17.8335C34.3907 17.2585 34.0063 16.8752 33.4298 16.8752H18.0555C17.479 16.8752 17.0946 17.2585 17.0946 17.8335V21.6668C17.0946 22.2418 17.479 22.6252 18.0555 22.6252H33.4298ZM33.4298 26.4585H18.0555C16.422 26.4585 15.1729 27.7043 15.1729 29.3335V33.1668C15.1729 34.796 16.422 36.0418 18.0555 36.0418H33.4298C35.0633 36.0418 36.3125 34.796 36.3125 33.1668V29.3335C36.3125 27.7043 35.0633 26.4585 33.4298 26.4585ZM33.4298 34.1252C34.0063 34.1252 34.3907 33.7418 34.3907 33.1668V29.3335C34.3907 28.7585 34.0063 28.3752 33.4298 28.3752H18.0555C17.479 28.3752 17.0946 28.7585 17.0946 29.3335V33.1668C17.0946 33.7418 17.479 34.1252 18.0555 34.1252H33.4298ZM20.6499 19.0794C20.8421 19.271 20.9382 19.4627 20.9382 19.7502C20.9382 20.0377 20.8421 20.2294 20.6499 20.421C20.4578 20.6127 20.2656 20.7085 19.9773 20.7085C19.689 20.7085 19.4969 20.6127 19.3047 20.421C19.2086 20.3252 19.1125 20.2294 19.1125 20.1335C19.0164 20.0377 19.0164 19.846 19.0164 19.7502C19.0164 19.6544 19.0164 19.4627 19.1125 19.3669C19.1605 19.3189 19.1846 19.271 19.2086 19.2231C19.2326 19.1752 19.2566 19.1273 19.3047 19.0794C19.4008 18.9835 19.4969 18.8877 19.593 18.8877C19.8812 18.7919 20.0734 18.7919 20.3617 18.8877C20.4578 18.8877 20.5538 18.9835 20.6499 19.0794ZM20.9382 31.2502C20.9382 30.9627 20.8421 30.771 20.6499 30.5793C20.2656 30.196 19.689 30.196 19.3047 30.5793C19.2566 30.6273 19.2326 30.6752 19.2086 30.7231C19.1846 30.771 19.1605 30.8189 19.1125 30.8668C19.0164 30.9627 19.0164 31.1543 19.0164 31.2502C19.0164 31.5377 19.1125 31.7293 19.3047 31.921C19.4969 32.1127 19.689 32.2085 19.9773 32.2085C20.2656 32.2085 20.4578 32.1127 20.6499 31.921C20.8421 31.7293 20.9382 31.5377 20.9382 31.2502Z" fill="black"/>
<mask id="mask0_1736_14648" style="mask-type:alpha" maskUnits="userSpaceOnUse" x="15" y="14" width="22" height="23">
<path fill-rule="evenodd" clip-rule="evenodd" d="M18.0555 14.958H33.4298C35.0633 14.958 36.3125 16.2038 36.3125 17.833V21.6663C36.3125 23.2955 35.0633 24.5413 33.4298 24.5413H18.0555C16.422 24.5413 15.1729 23.2955 15.1729 21.6663V17.833C15.1729 16.2038 16.422 14.958 18.0555 14.958ZM33.4298 22.6252C34.0063 22.6252 34.3907 22.2418 34.3907 21.6668V17.8335C34.3907 17.2585 34.0063 16.8752 33.4298 16.8752H18.0555C17.479 16.8752 17.0946 17.2585 17.0946 17.8335V21.6668C17.0946 22.2418 17.479 22.6252 18.0555 22.6252H33.4298ZM33.4298 26.4585H18.0555C16.422 26.4585 15.1729 27.7043 15.1729 29.3335V33.1668C15.1729 34.796 16.422 36.0418 18.0555 36.0418H33.4298C35.0633 36.0418 36.3125 34.796 36.3125 33.1668V29.3335C36.3125 27.7043 35.0633 26.4585 33.4298 26.4585ZM33.4298 34.1252C34.0063 34.1252 34.3907 33.7418 34.3907 33.1668V29.3335C34.3907 28.7585 34.0063 28.3752 33.4298 28.3752H18.0555C17.479 28.3752 17.0946 28.7585 17.0946 29.3335V33.1668C17.0946 33.7418 17.479 34.1252 18.0555 34.1252H33.4298ZM20.6499 19.0794C20.8421 19.271 20.9382 19.4627 20.9382 19.7502C20.9382 20.0377 20.8421 20.2294 20.6499 20.421C20.4578 20.6127 20.2656 20.7085 19.9773 20.7085C19.689 20.7085 19.4969 20.6127 19.3047 20.421C19.2086 20.3252 19.1125 20.2294 19.1125 20.1335C19.0164 20.0377 19.0164 19.846 19.0164 19.7502C19.0164 19.6544 19.0164 19.4627 19.1125 19.3669C19.1605 19.3189 19.1846 19.271 19.2086 19.2231C19.2326 19.1752 19.2566 19.1273 19.3047 19.0794C19.4008 18.9835 19.4969 18.8877 19.593 18.8877C19.8812 18.7919 20.0734 18.7919 20.3617 18.8877C20.4578 18.8877 20.5538 18.9835 20.6499 19.0794ZM20.9382 31.2502C20.9382 30.9627 20.8421 30.771 20.6499 30.5793C20.2656 30.196 19.689 30.196 19.3047 30.5793C19.2566 30.6273 19.2326 30.6752 19.2086 30.7231C19.1846 30.771 19.1605 30.8189 19.1125 30.8668C19.0164 30.9627 19.0164 31.1543 19.0164 31.2502C19.0164 31.5377 19.1125 31.7293 19.3047 31.921C19.4969 32.1127 19.689 32.2085 19.9773 32.2085C20.2656 32.2085 20.4578 32.1127 20.6499 31.921C20.8421 31.7293 20.9382 31.5377 20.9382 31.2502Z" fill="white"/>
</mask>
<g mask="url(#mask0_1736_14648)">
<rect x="14.2119" y="14" width="23.0614" height="23" fill="#283046"/>
</g>
</svg>
