<svg width="51" height="50" viewBox="0 0 51 50" fill="none" xmlns="http://www.w3.org/2000/svg">
<ellipse cx="25.6966" cy="25" rx="25.0667" ry="25" fill="#B9B9C3" fill-opacity="0.3"/>
<path fill-rule="evenodd" clip-rule="evenodd" d="M26.3983 15.299L32.1135 20.899C35.6228 24.499 35.6228 30.199 32.1135 33.699C30.4089 35.399 28.1028 36.299 25.6964 36.299C23.29 36.299 20.9838 35.399 19.2793 33.699C17.5748 31.999 16.6724 29.699 16.6724 27.299C16.6724 24.899 17.5748 22.599 19.3796 20.899L24.9945 15.299C25.1951 15.099 25.3956 14.999 25.6964 14.999C25.9972 14.999 26.1977 15.099 26.3983 15.299ZM25.6964 34.2996C27.6015 34.2996 29.306 33.5996 30.7097 32.2996C33.4169 29.4996 33.4169 25.0996 30.6095 22.3996L25.5961 17.3996L20.683 22.3996C19.3796 23.6996 18.6777 25.3996 18.6777 27.2996C18.6777 29.1996 19.3796 30.8996 20.7833 32.2996C22.0868 33.5996 23.7913 34.2996 25.6964 34.2996Z" fill="black"/>
<mask id="mask0_1736_14633" style="mask-type:alpha" maskUnits="userSpaceOnUse" x="16" y="14" width="19" height="23">
<path fill-rule="evenodd" clip-rule="evenodd" d="M26.3983 15.299L32.1135 20.899C35.6228 24.499 35.6228 30.199 32.1135 33.699C30.4089 35.399 28.1028 36.299 25.6964 36.299C23.29 36.299 20.9838 35.399 19.2793 33.699C17.5748 31.999 16.6724 29.699 16.6724 27.299C16.6724 24.899 17.5748 22.599 19.3796 20.899L24.9945 15.299C25.1951 15.099 25.3956 14.999 25.6964 14.999C25.9972 14.999 26.1977 15.099 26.3983 15.299ZM25.6964 34.2996C27.6015 34.2996 29.306 33.5996 30.7097 32.2996C33.4169 29.4996 33.4169 25.0996 30.6095 22.3996L25.5961 17.3996L20.683 22.3996C19.3796 23.6996 18.6777 25.3996 18.6777 27.2996C18.6777 29.1996 19.3796 30.8996 20.7833 32.2996C22.0868 33.5996 23.7913 34.2996 25.6964 34.2996Z" fill="white"/>
</mask>
<g mask="url(#mask0_1736_14633)">
<rect x="13.6646" y="14" width="24.0641" height="24" fill="#283046"/>
</g>
</svg>
