<svg width="51" height="50" viewBox="0 0 51 50" fill="none" xmlns="http://www.w3.org/2000/svg">
<ellipse cx="25.1522" cy="25" rx="25.0667" ry="25" fill="#B9B9C3" fill-opacity="0.3"/>
<path fill-rule="evenodd" clip-rule="evenodd" d="M19.5818 20.25C19.5818 17.31 22.0328 15 25.1522 15C28.2716 15 30.7226 17.31 30.7226 20.25C30.7226 23.19 28.2716 25.5 25.1522 25.5C22.0328 25.5 19.5818 23.19 19.5818 20.25ZM35.1789 32.85V34.95C35.1789 35.58 34.7332 36 34.0648 36C33.3963 36 32.9507 35.58 32.9507 34.95V32.85C32.9507 31.065 31.5024 29.7 29.6085 29.7H20.6959C18.8019 29.7 17.3536 31.065 17.3536 32.85V34.95C17.3536 35.58 16.908 36 16.2396 36C15.5711 36 15.1255 35.58 15.1255 34.95V32.85C15.1255 29.91 17.5765 27.6 20.6959 27.6H29.6085C32.7279 27.6 35.1789 29.91 35.1789 32.85ZM25.1522 23.4C23.2582 23.4 21.8099 22.035 21.8099 20.25C21.8099 18.465 23.2582 17.1 25.1522 17.1C27.0461 17.1 28.4944 18.465 28.4944 20.25C28.4944 22.035 27.0461 23.4 25.1522 23.4Z" fill="black"/>
<mask id="mask0_1736_14616" style="mask-type:alpha" maskUnits="userSpaceOnUse" x="15" y="15" width="21" height="21">
<path fill-rule="evenodd" clip-rule="evenodd" d="M19.5818 20.25C19.5818 17.31 22.0328 15 25.1522 15C28.2716 15 30.7226 17.31 30.7226 20.25C30.7226 23.19 28.2716 25.5 25.1522 25.5C22.0328 25.5 19.5818 23.19 19.5818 20.25ZM35.1789 32.85V34.95C35.1789 35.58 34.7332 36 34.0648 36C33.3963 36 32.9507 35.58 32.9507 34.95V32.85C32.9507 31.065 31.5024 29.7 29.6085 29.7H20.6959C18.8019 29.7 17.3536 31.065 17.3536 32.85V34.95C17.3536 35.58 16.908 36 16.2396 36C15.5711 36 15.1255 35.58 15.1255 34.95V32.85C15.1255 29.91 17.5765 27.6 20.6959 27.6H29.6085C32.7279 27.6 35.1789 29.91 35.1789 32.85ZM25.1522 23.4C23.2582 23.4 21.8099 22.035 21.8099 20.25C21.8099 18.465 23.2582 17.1 25.1522 17.1C27.0461 17.1 28.4944 18.465 28.4944 20.25C28.4944 22.035 27.0461 23.4 25.1522 23.4Z" fill="white"/>
</mask>
<g mask="url(#mask0_1736_14616)">
<rect x="11.7832" y="12.9004" width="26.7378" height="25.2" fill="#283046"/>
</g>
</svg>
