<svg width="51" height="50" viewBox="0 0 51 50" fill="none" xmlns="http://www.w3.org/2000/svg">
<ellipse cx="25.7855" cy="25" rx="25.0667" ry="25" fill="#B9B9C3" fill-opacity="0.3"/>
<path d="M35.7212 15H16.8528C15.6998 15 14.7563 15.945 14.7563 17.1V33.9C14.7563 35.055 15.6998 36 16.8528 36H35.7212C36.8743 36 37.8177 35.055 37.8177 33.9V17.1C37.8177 15.945 36.8743 15 35.7212 15ZM35.7212 33.9H16.8528V19.2H35.7212V33.9ZM23.1423 21.3C21.9892 21.3 21.0458 22.245 21.0458 23.4C21.0458 24.555 20.1024 25.5 18.9493 25.5V27.6C20.1024 27.6 21.0458 28.545 21.0458 29.7C21.0458 30.855 21.9892 31.8 23.1423 31.8H25.2388V29.7H23.1423V28.65C23.1423 27.495 22.1989 26.55 21.0458 26.55C22.1989 26.55 23.1423 25.605 23.1423 24.45V23.4H25.2388V21.3M29.4318 21.3C30.5848 21.3 31.5283 22.245 31.5283 23.4C31.5283 24.555 32.4717 25.5 33.6248 25.5V27.6C32.4717 27.6 31.5283 28.545 31.5283 29.7C31.5283 30.855 30.5848 31.8 29.4318 31.8H27.3353V29.7H29.4318V28.65C29.4318 27.495 30.3752 26.55 31.5283 26.55C30.3752 26.55 29.4318 25.605 29.4318 24.45V23.4H27.3353V21.3H29.4318Z" fill="#283046"/>
</svg>
